<?xml version="1.0" encoding="utf-8"?>
<!-- Generator: Adobe Illustrator 23.0.1, SVG Export Plug-In . SVG Version: 6.00 Build 0)  -->
<svg version="1.1" id="Layer_1" xmlns="http://www.w3.org/2000/svg" xmlns:xlink="http://www.w3.org/1999/xlink" x="0px" y="0px"
	 viewBox="0 0 240.5 65" style="enable-background:new 0 0 240.5 65;" xml:space="preserve">
<style type="text/css">
	.st0{fill:#FFFFFF;}
	.st1{font-family:'ManifoldDSA-Bold';}
	.st2{font-size:25px;}
	.st3{clip-path:url(#SVGID_2_);}
	.st4{clip-path:url(#SVGID_4_);fill:#EFEB37;}
	.st5{clip-path:url(#SVGID_4_);fill:#EC1F27;}
	.st6{clip-path:url(#SVGID_4_);fill:#241E1F;}
	.st7{clip-path:url(#SVGID_4_);fill:#EB2027;}
	.st8{clip-path:url(#SVGID_4_);fill:#FFFFFF;}
</style>
<path class="st0" d="M56.5,43.4c0.9,0,1.6,0.1,2.2,0.4c0.6,0.3,1,0.8,1.3,1.5c0.3,0.7,0.4,1.6,0.4,2.8c0,1.2-0.1,2.1-0.4,2.8
	c-0.3,0.7-0.7,1.2-1.3,1.5c-0.6,0.3-1.3,0.4-2.2,0.4H54v-9.5H56.5z M56.7,51.9c0.7,0,1.2-0.1,1.6-0.3c0.4-0.2,0.7-0.6,0.9-1.2
	c0.2-0.6,0.3-1.3,0.3-2.3c0-1-0.1-1.7-0.3-2.3c-0.2-0.6-0.5-1-0.9-1.2c-0.4-0.2-0.9-0.4-1.6-0.4H55v7.6H56.7z"/>
<path class="st0" d="M64.7,53c-0.9,0-1.6-0.3-2.1-0.8c-0.5-0.5-0.8-1.3-0.8-2.4v-0.5c0-1.1,0.2-1.9,0.7-2.4c0.5-0.5,1.2-0.8,2-0.8
	c0.8,0,1.5,0.3,1.9,0.8c0.5,0.5,0.7,1.3,0.7,2.3c0,0.3-0.1,0.5-0.2,0.6c-0.1,0.1-0.3,0.2-0.6,0.2h-3.7c0,0.8,0.2,1.4,0.5,1.7
	c0.3,0.4,0.8,0.5,1.5,0.5c0.4,0,0.7-0.1,1-0.2c0.3-0.1,0.6-0.3,0.8-0.5l0.4,0.6C66.5,52.6,65.7,53,64.7,53z M66.4,49.1
	c0-0.8-0.1-1.4-0.4-1.7c-0.3-0.4-0.7-0.5-1.3-0.5c-1.2,0-1.8,0.8-1.8,2.3H66.4z"/>
<path class="st0" d="M75.8,46c0.6,0,1.1,0.2,1.5,0.6c0.3,0.4,0.5,1,0.5,1.8v4.5h-1v-4.5c0-0.5-0.1-0.8-0.3-1.1
	c-0.2-0.3-0.5-0.4-0.9-0.4c-0.4,0-0.8,0.1-1.1,0.4c-0.3,0.2-0.5,0.5-0.6,0.9v4.7h-1v-4.5c0-0.5-0.1-0.8-0.3-1.1
	c-0.2-0.3-0.5-0.4-0.9-0.4c-0.4,0-0.8,0.1-1.1,0.4c-0.3,0.3-0.5,0.5-0.6,0.9v4.7h-0.9v-6.8h0.9v1.2c0.2-0.4,0.4-0.7,0.8-0.9
	c0.3-0.3,0.8-0.4,1.3-0.4c0.4,0,0.8,0.1,1.1,0.3c0.3,0.2,0.5,0.5,0.7,1c0.2-0.4,0.5-0.7,0.8-0.9C74.9,46.1,75.3,46,75.8,46z"/>
<path class="st0" d="M82.3,53c-0.9,0-1.6-0.3-2.1-0.8c-0.5-0.5-0.7-1.4-0.7-2.4v-0.4c0-1.1,0.2-1.9,0.7-2.4c0.5-0.5,1.2-0.8,2.1-0.8
	c0.9,0,1.5,0.3,2,0.8c0.5,0.5,0.7,1.4,0.7,2.4v0.4c0,1.1-0.2,1.9-0.7,2.4C83.9,52.7,83.2,53,82.3,53z M82.3,52.1
	c1.2,0,1.8-0.8,1.8-2.4v-0.4c0-1.6-0.6-2.4-1.8-2.4c-1.2,0-1.8,0.8-1.8,2.4v0.4C80.5,51.3,81.1,52.1,82.3,52.1z"/>
<path class="st0" d="M89.4,52.1c0.4,0,0.7-0.1,0.9-0.2c0.3-0.1,0.5-0.3,0.8-0.5l0.4,0.6c-0.3,0.3-0.6,0.5-1,0.7
	c-0.4,0.2-0.8,0.3-1.3,0.3c-0.9,0-1.6-0.3-2-0.8c-0.5-0.5-0.7-1.4-0.7-2.4v-0.4c0-1.1,0.2-1.9,0.7-2.4c0.5-0.5,1.2-0.8,2-0.8
	c0.9,0,1.7,0.3,2.3,1l-0.4,0.6c-0.3-0.2-0.6-0.4-0.8-0.5c-0.2-0.1-0.6-0.2-0.9-0.2c-0.6,0-1.1,0.2-1.5,0.6c-0.3,0.4-0.5,1-0.5,1.9
	v0.4c0,0.9,0.2,1.5,0.5,1.9C88.3,51.9,88.8,52.1,89.4,52.1z"/>
<path class="st0" d="M96.7,47c-0.2,0-0.4-0.1-0.5-0.1c-0.4,0-0.8,0.1-1.2,0.4c-0.3,0.3-0.6,0.6-0.7,1v4.5h-0.9v-6.8h0.9v1.3
	c0.4-0.9,1.1-1.4,2-1.4c0.1,0,0.3,0,0.5,0.1V47z"/>
<path class="st0" d="M102.6,52.3c0,0.2,0,0.3,0,0.4c0,0.1,0,0.1,0.1,0.2h-0.7c-0.3,0-0.4-0.2-0.4-0.6v-0.6c-0.2,0.4-0.6,0.7-1,1
	c-0.4,0.2-0.8,0.4-1.3,0.4c-0.6,0-1.1-0.2-1.4-0.5s-0.6-0.8-0.6-1.5c0-0.7,0.2-1.1,0.6-1.5c0.4-0.3,1-0.5,1.8-0.6l1.8-0.2v-0.3
	c0-0.6-0.1-1-0.4-1.2c-0.2-0.2-0.6-0.4-1.1-0.4c-0.7,0-1.4,0.2-2,0.6l-0.3-0.7c0.7-0.5,1.5-0.8,2.4-0.8c0.8,0,1.4,0.2,1.7,0.6
	c0.4,0.4,0.6,1,0.6,1.8V52.3z M99.6,52.1c0.5,0,0.9-0.1,1.3-0.4c0.4-0.3,0.6-0.6,0.7-1v-1.3l-1.7,0.2c-0.6,0.1-1,0.2-1.3,0.4
	c-0.3,0.2-0.4,0.5-0.4,0.9c0,0.4,0.1,0.7,0.3,0.9C98.9,52,99.2,52.1,99.6,52.1z"/>
<path class="st0" d="M105.9,51c0,0.4,0.1,0.6,0.2,0.8c0.1,0.2,0.4,0.2,0.7,0.2c0.2,0,0.3,0,0.5,0v0.7c-0.3,0.1-0.6,0.2-1,0.2
	c-0.5,0-0.9-0.2-1.2-0.5c-0.2-0.3-0.3-0.8-0.3-1.5v-4.1h-1.2v-0.8h1.2v-1.6l0.9-0.2v1.8h1.6l0,0.8h-1.6V51z"/>
<path class="st0" d="M109,43.8c0-0.4,0.2-0.5,0.5-0.5h0.2c0.3,0,0.5,0.2,0.5,0.5V44c0,0.4-0.2,0.5-0.5,0.5h-0.2
	c-0.3,0-0.5-0.2-0.5-0.5V43.8z M109.1,46.1h1v6.8h-1V46.1z"/>
<path class="st0" d="M114.8,52.1c0.4,0,0.7-0.1,0.9-0.2c0.3-0.1,0.5-0.3,0.8-0.5l0.4,0.6c-0.3,0.3-0.6,0.5-1,0.7
	c-0.4,0.2-0.8,0.3-1.3,0.3c-0.9,0-1.6-0.3-2-0.8c-0.5-0.5-0.7-1.4-0.7-2.4v-0.4c0-1.1,0.2-1.9,0.7-2.4c0.5-0.5,1.2-0.8,2-0.8
	c0.9,0,1.7,0.3,2.3,1l-0.4,0.6c-0.3-0.2-0.6-0.4-0.8-0.5c-0.2-0.1-0.6-0.2-0.9-0.2c-0.6,0-1.1,0.2-1.5,0.6c-0.3,0.4-0.5,1-0.5,1.9
	v0.4c0,0.9,0.2,1.5,0.5,1.9C113.6,51.9,114.1,52.1,114.8,52.1z"/>
<path class="st0" d="M124.9,47.4c0.7,0.3,1.3,0.6,1.7,0.8c0.4,0.2,0.7,0.5,1,0.8c0.3,0.3,0.4,0.8,0.4,1.3c0,0.5-0.1,1-0.4,1.4
	c-0.3,0.4-0.7,0.7-1.1,0.9c-0.5,0.2-1,0.3-1.5,0.3c-0.7,0-1.4-0.2-2-0.6c-0.6-0.4-1-0.9-1.2-1.5l0.7-0.5c0.2,0.5,0.6,0.9,1,1.1
	s0.9,0.4,1.4,0.4c0.3,0,0.7-0.1,1-0.2c0.3-0.1,0.6-0.3,0.8-0.6c0.2-0.3,0.3-0.6,0.3-0.9c0-0.3-0.1-0.6-0.3-0.9
	c-0.2-0.2-0.4-0.4-0.7-0.6c-0.3-0.2-0.7-0.3-1.2-0.5c-0.9-0.3-1.5-0.7-2-1.1c-0.4-0.4-0.7-0.9-0.7-1.5c0-0.5,0.1-0.9,0.4-1.3
	c0.3-0.4,0.6-0.7,1-0.9c0.4-0.2,0.9-0.3,1.4-0.3c0.7,0,1.3,0.2,1.8,0.5c0.5,0.3,0.9,0.8,1.2,1.3l-0.7,0.5c-0.3-0.5-0.6-0.8-1-1.1
	c-0.4-0.2-0.8-0.3-1.3-0.3c-0.5,0-1,0.1-1.3,0.4c-0.3,0.3-0.5,0.6-0.5,1.1c0,0.4,0.1,0.7,0.4,1C123.7,46.9,124.2,47.2,124.9,47.4z"
	/>
<path class="st0" d="M132,53c-0.9,0-1.6-0.3-2.1-0.8c-0.5-0.5-0.7-1.4-0.7-2.4v-0.4c0-1.1,0.2-1.9,0.7-2.4c0.5-0.5,1.2-0.8,2.1-0.8
	c0.9,0,1.5,0.3,2,0.8c0.5,0.5,0.7,1.4,0.7,2.4v0.4c0,1.1-0.2,1.9-0.7,2.4C133.5,52.7,132.8,53,132,53z M132,52.1
	c1.2,0,1.8-0.8,1.8-2.4v-0.4c0-1.6-0.6-2.4-1.8-2.4c-1.2,0-1.8,0.8-1.8,2.4v0.4C130.1,51.3,130.7,52.1,132,52.1z"/>
<path class="st0" d="M139.1,52.1c0.4,0,0.7-0.1,0.9-0.2c0.3-0.1,0.5-0.3,0.8-0.5l0.4,0.6c-0.3,0.3-0.6,0.5-1,0.7
	c-0.4,0.2-0.8,0.3-1.3,0.3c-0.9,0-1.6-0.3-2-0.8c-0.5-0.5-0.7-1.4-0.7-2.4v-0.4c0-1.1,0.2-1.9,0.7-2.4c0.5-0.5,1.2-0.8,2-0.8
	c0.9,0,1.7,0.3,2.3,1l-0.4,0.6c-0.3-0.2-0.6-0.4-0.8-0.5c-0.2-0.1-0.6-0.2-0.9-0.2c-0.6,0-1.1,0.2-1.5,0.6c-0.3,0.4-0.5,1-0.5,1.9
	v0.4c0,0.9,0.2,1.5,0.5,1.9C137.9,51.9,138.4,52.1,139.1,52.1z"/>
<path class="st0" d="M142.9,43.8c0-0.4,0.2-0.5,0.5-0.5h0.2c0.3,0,0.5,0.2,0.5,0.5V44c0,0.4-0.2,0.5-0.5,0.5h-0.2
	c-0.3,0-0.5-0.2-0.5-0.5V43.8z M143.1,46.1h1v6.8h-1V46.1z"/>
<path class="st0" d="M151,52.3c0,0.2,0,0.3,0,0.4c0,0.1,0,0.1,0.1,0.2h-0.7c-0.3,0-0.4-0.2-0.4-0.6v-0.6c-0.2,0.4-0.6,0.7-1,1
	c-0.4,0.2-0.8,0.4-1.3,0.4c-0.6,0-1.1-0.2-1.4-0.5c-0.4-0.3-0.6-0.8-0.6-1.5c0-0.7,0.2-1.1,0.6-1.5c0.4-0.3,1-0.5,1.8-0.6l1.8-0.2
	v-0.3c0-0.6-0.1-1-0.4-1.2c-0.2-0.2-0.6-0.4-1.1-0.4c-0.7,0-1.4,0.2-2,0.6l-0.3-0.7c0.7-0.5,1.5-0.8,2.4-0.8c0.8,0,1.4,0.2,1.7,0.6
	c0.4,0.4,0.6,1,0.6,1.8V52.3z M148,52.1c0.5,0,0.9-0.1,1.3-0.4c0.4-0.3,0.6-0.6,0.7-1v-1.3l-1.7,0.2c-0.6,0.1-1,0.2-1.3,0.4
	c-0.3,0.2-0.4,0.5-0.4,0.9c0,0.4,0.1,0.7,0.3,0.9C147.2,52,147.6,52.1,148,52.1z"/>
<path class="st0" d="M153,52.9v-9.8h0.9v9.8H153z"/>
<path class="st0" d="M155.9,43.8c0-0.4,0.2-0.5,0.5-0.5h0.2c0.3,0,0.5,0.2,0.5,0.5V44c0,0.4-0.2,0.5-0.5,0.5h-0.2
	c-0.3,0-0.5-0.2-0.5-0.5V43.8z M156,46.1h1v6.8h-1V46.1z"/>
<path class="st0" d="M161.3,48.9c0.6,0.2,1,0.4,1.3,0.6c0.3,0.2,0.6,0.4,0.8,0.6c0.2,0.3,0.3,0.6,0.3,0.9c0,0.4-0.1,0.8-0.3,1
	c-0.2,0.3-0.5,0.5-0.9,0.7c-0.4,0.1-0.8,0.2-1.2,0.2c-0.7,0-1.2-0.2-1.7-0.5c-0.5-0.3-0.7-0.8-0.8-1.4l0.8-0.1
	c0.1,0.4,0.3,0.6,0.6,0.8c0.3,0.2,0.7,0.3,1.1,0.3c0.4,0,0.8-0.1,1-0.3c0.3-0.2,0.4-0.5,0.4-0.8c0-0.3-0.1-0.5-0.4-0.7
	c-0.2-0.2-0.6-0.4-1.2-0.5c-0.7-0.2-1.3-0.5-1.7-0.8c-0.4-0.3-0.6-0.7-0.6-1.2c0-0.5,0.2-0.9,0.6-1.3c0.4-0.3,0.9-0.5,1.5-0.5
	c0.6,0,1.2,0.2,1.6,0.5c0.4,0.3,0.7,0.8,0.7,1.3l-0.8,0.2c-0.1-0.3-0.3-0.6-0.6-0.8c-0.3-0.2-0.6-0.3-1-0.3c-0.4,0-0.7,0.1-0.9,0.3
	c-0.2,0.2-0.3,0.4-0.3,0.7c0,0.3,0.1,0.5,0.3,0.6C160.4,48.6,160.8,48.8,161.3,48.9z"/>
<path class="st0" d="M166.7,51c0,0.4,0.1,0.6,0.2,0.8c0.1,0.2,0.4,0.2,0.7,0.2c0.2,0,0.3,0,0.5,0v0.7c-0.3,0.1-0.6,0.2-1,0.2
	c-0.5,0-0.9-0.2-1.2-0.5c-0.2-0.3-0.3-0.8-0.3-1.5v-4.1h-1.2v-0.8h1.2v-1.6l0.9-0.2v1.8h1.6l0,0.8h-1.6V51z"/>
<path class="st0" d="M172,48.9c0.6,0.2,1,0.4,1.3,0.6c0.3,0.2,0.6,0.4,0.8,0.6c0.2,0.3,0.3,0.6,0.3,0.9c0,0.4-0.1,0.8-0.3,1
	c-0.2,0.3-0.5,0.5-0.9,0.7c-0.4,0.1-0.8,0.2-1.2,0.2c-0.7,0-1.2-0.2-1.7-0.5c-0.5-0.3-0.7-0.8-0.8-1.4l0.8-0.1
	c0.1,0.4,0.3,0.6,0.6,0.8c0.3,0.2,0.7,0.3,1.1,0.3c0.4,0,0.8-0.1,1-0.3c0.3-0.2,0.4-0.5,0.4-0.8c0-0.3-0.1-0.5-0.4-0.7
	c-0.2-0.2-0.6-0.4-1.2-0.5c-0.7-0.2-1.3-0.5-1.7-0.8c-0.4-0.3-0.6-0.7-0.6-1.2c0-0.5,0.2-0.9,0.6-1.3c0.4-0.3,0.9-0.5,1.5-0.5
	c0.6,0,1.2,0.2,1.6,0.5c0.4,0.3,0.7,0.8,0.7,1.3l-0.8,0.2c-0.1-0.3-0.3-0.6-0.6-0.8c-0.3-0.2-0.6-0.3-1-0.3c-0.4,0-0.7,0.1-0.9,0.3
	c-0.2,0.2-0.3,0.4-0.3,0.7c0,0.3,0.1,0.5,0.3,0.6C171.2,48.6,171.6,48.8,172,48.9z"/>
<path class="st0" d="M182.1,53c-0.9,0-1.6-0.3-2.1-0.8c-0.5-0.5-0.7-1.4-0.7-2.4v-0.4c0-1.1,0.2-1.9,0.7-2.4
	c0.5-0.5,1.2-0.8,2.1-0.8c0.9,0,1.5,0.3,2,0.8c0.5,0.5,0.7,1.4,0.7,2.4v0.4c0,1.1-0.2,1.9-0.7,2.4C183.7,52.7,183,53,182.1,53z
	 M182.1,52.1c1.2,0,1.8-0.8,1.8-2.4v-0.4c0-1.6-0.6-2.4-1.8-2.4c-1.2,0-1.8,0.8-1.8,2.4v0.4C180.3,51.3,180.9,52.1,182.1,52.1z"/>
<path class="st0" d="M188.1,46.1h1.9v0.8h-1.9v5.9h-1v-5.9h-1v-0.8h1v-0.9c0-0.8,0.2-1.4,0.5-1.7c0.3-0.4,0.8-0.5,1.6-0.5h0.8
	l0.1,0.9h-0.9c-0.4,0-0.7,0.1-0.9,0.3c-0.1,0.2-0.2,0.6-0.2,1.1V46.1z"/>
<path class="st0" d="M200.8,52.9l-0.7-2.3h-3.8l-0.7,2.3h-1l2.9-9.5h1.5l2.9,9.5H200.8z M196.6,49.7h3.3l-1.6-5.2h-0.2L196.6,49.7z"
	/>
<path class="st0" d="M210.3,46c0.6,0,1.1,0.2,1.5,0.6c0.3,0.4,0.5,1,0.5,1.8v4.5h-1v-4.5c0-0.5-0.1-0.8-0.3-1.1
	c-0.2-0.3-0.5-0.4-0.9-0.4c-0.4,0-0.8,0.1-1.1,0.4c-0.3,0.2-0.5,0.5-0.6,0.9v4.7h-1v-4.5c0-0.5-0.1-0.8-0.3-1.1
	c-0.2-0.3-0.5-0.4-0.9-0.4c-0.4,0-0.8,0.1-1.1,0.4c-0.3,0.3-0.5,0.5-0.6,0.9v4.7h-0.9v-6.8h0.9v1.2c0.2-0.4,0.4-0.7,0.8-0.9
	c0.3-0.3,0.8-0.4,1.3-0.4c0.4,0,0.8,0.1,1.1,0.3c0.3,0.2,0.5,0.5,0.7,1c0.2-0.4,0.5-0.7,0.8-0.9C209.3,46.1,209.8,46,210.3,46z"/>
<path class="st0" d="M216.8,53c-0.9,0-1.6-0.3-2.1-0.8c-0.5-0.5-0.8-1.3-0.8-2.4v-0.5c0-1.1,0.2-1.9,0.7-2.4c0.5-0.5,1.2-0.8,2-0.8
	c0.8,0,1.5,0.3,1.9,0.8c0.5,0.5,0.7,1.3,0.7,2.3c0,0.3-0.1,0.5-0.2,0.6c-0.1,0.1-0.3,0.2-0.6,0.2h-3.7c0,0.8,0.2,1.4,0.5,1.7
	c0.3,0.4,0.8,0.5,1.5,0.5c0.4,0,0.7-0.1,1-0.2c0.3-0.1,0.6-0.3,0.8-0.5l0.4,0.6C218.5,52.6,217.8,53,216.8,53z M218.4,49.1
	c0-0.8-0.1-1.4-0.4-1.7c-0.3-0.4-0.7-0.5-1.3-0.5c-1.2,0-1.8,0.8-1.8,2.3H218.4z"/>
<path class="st0" d="M224.4,47c-0.2,0-0.4-0.1-0.5-0.1c-0.4,0-0.8,0.1-1.2,0.4c-0.3,0.3-0.6,0.6-0.7,1v4.5H221v-6.8h0.9v1.3
	c0.4-0.9,1.1-1.4,2-1.4c0.1,0,0.3,0,0.5,0.1V47z"/>
<path class="st0" d="M225.9,43.8c0-0.4,0.2-0.5,0.5-0.5h0.2c0.3,0,0.5,0.2,0.5,0.5V44c0,0.4-0.2,0.5-0.5,0.5h-0.2
	c-0.3,0-0.5-0.2-0.5-0.5V43.8z M226.1,46.1h1v6.8h-1V46.1z"/>
<path class="st0" d="M231.7,52.1c0.4,0,0.7-0.1,0.9-0.2c0.3-0.1,0.5-0.3,0.8-0.5l0.4,0.6c-0.3,0.3-0.6,0.5-1,0.7
	c-0.4,0.2-0.8,0.3-1.3,0.3c-0.9,0-1.6-0.3-2-0.8c-0.5-0.5-0.7-1.4-0.7-2.4v-0.4c0-1.1,0.2-1.9,0.7-2.4c0.5-0.5,1.2-0.8,2-0.8
	c0.9,0,1.7,0.3,2.3,1l-0.4,0.6c-0.3-0.2-0.6-0.4-0.8-0.5c-0.2-0.1-0.6-0.2-0.9-0.2c-0.6,0-1.1,0.2-1.5,0.6c-0.3,0.4-0.5,1-0.5,1.9
	v0.4c0,0.9,0.2,1.5,0.5,1.9C230.6,51.9,231,52.1,231.7,52.1z"/>
<path class="st0" d="M240.4,52.3c0,0.2,0,0.3,0,0.4c0,0.1,0,0.1,0.1,0.2h-0.7c-0.3,0-0.4-0.2-0.4-0.6v-0.6c-0.2,0.4-0.6,0.7-1,1
	c-0.4,0.2-0.8,0.4-1.3,0.4c-0.6,0-1.1-0.2-1.4-0.5s-0.6-0.8-0.6-1.5c0-0.7,0.2-1.1,0.6-1.5c0.4-0.3,1-0.5,1.8-0.6l1.8-0.2v-0.3
	c0-0.6-0.1-1-0.4-1.2c-0.2-0.2-0.6-0.4-1.1-0.4c-0.7,0-1.4,0.2-2,0.6l-0.3-0.7c0.7-0.5,1.5-0.8,2.4-0.8c0.8,0,1.4,0.2,1.7,0.6
	c0.4,0.4,0.6,1,0.6,1.8V52.3z M237.4,52.1c0.5,0,0.9-0.1,1.3-0.4c0.4-0.3,0.6-0.6,0.7-1v-1.3l-1.7,0.2c-0.6,0.1-1,0.2-1.3,0.4
	c-0.3,0.2-0.4,0.5-0.4,0.9c0,0.4,0.1,0.7,0.3,0.9C236.7,52,237,52.1,237.4,52.1z"/>
<text transform="matrix(1 0 0 1 54.0304 34.5314)" class="st0 st1 st2">Sacramento DSA</text>
<g>
	<g>
		<defs>
			<rect id="SVGID_1_" width="43.8" height="65"/>
		</defs>
		<clipPath id="SVGID_2_">
			<use xlink:href="#SVGID_1_"  style="overflow:visible;"/>
		</clipPath>
		<g class="st3">
			<defs>
				<rect id="SVGID_3_" width="43.8" height="65"/>
			</defs>
			<clipPath id="SVGID_4_">
				<use xlink:href="#SVGID_3_"  style="overflow:visible;"/>
			</clipPath>
			<path class="st4" d="M39.8,24.8c-0.1,0-0.3-0.1-0.4-0.2L31.8,16c-0.2-0.2-0.2-0.5,0-0.7c0.2-0.2,0.5-0.2,0.7,0l7.6,8.6
				c0.2,0.2,0.2,0.5,0,0.7C40,24.7,39.9,24.8,39.8,24.8"/>
			<path class="st4" d="M32.2,24.2c-0.1,0-0.3-0.1-0.4-0.2c-0.2-0.2-0.2-0.5,0-0.7l7.6-7.3c0.2-0.2,0.5-0.2,0.7,0
				c0.2,0.2,0.2,0.5,0,0.7l-7.6,7.3C32.5,24.2,32.3,24.2,32.2,24.2"/>
			<path class="st4" d="M39.8,34.3c-0.1,0-0.3-0.1-0.4-0.2l-7.6-8.3c-0.2-0.2-0.2-0.5,0-0.7c0.2-0.2,0.5-0.2,0.7,0l7.6,8.3
				c0.2,0.2,0.2,0.5,0,0.7C40,34.2,39.9,34.3,39.8,34.3"/>
			<path class="st4" d="M32.2,34.1c-0.1,0-0.3-0.1-0.4-0.2c-0.2-0.2-0.2-0.5,0-0.7l7.6-7.6c0.2-0.2,0.5-0.2,0.7,0
				c0.2,0.2,0.2,0.5,0,0.7l-7.6,7.6C32.5,34,32.3,34.1,32.2,34.1"/>
			<path class="st4" d="M32.2,15.6l7.6,0.8v7.8l-7.6-0.5V15.6 M32.2,14.6c-0.3,0-0.5,0.1-0.7,0.3c-0.2,0.2-0.3,0.5-0.3,0.8v8.1
				c0,0.5,0.4,1,1,1l7.6,0.5c0,0,0,0,0.1,0c0.3,0,0.5-0.1,0.7-0.3c0.2-0.2,0.3-0.5,0.3-0.8v-7.8c0-0.5-0.4-1-0.9-1l-7.6-0.8
				C32.3,14.6,32.2,14.6,32.2,14.6"/>
			<path class="st4" d="M32.2,25.5l7.7,0.5v7.8l-7.7-0.2V25.5 M32.2,24.5c-0.3,0-0.5,0.1-0.7,0.3c-0.2,0.2-0.3,0.5-0.3,0.8v8.1
				c0,0.6,0.4,1,1,1l7.7,0.2c0,0,0,0,0,0c0.3,0,0.5-0.1,0.7-0.3c0.2-0.2,0.3-0.5,0.3-0.7V26c0-0.5-0.4-1-1-1L32.2,24.5
				C32.2,24.5,32.2,24.5,32.2,24.5"/>
			<path class="st4" d="M33.3,12.7c-0.3,0-0.5-0.2-0.5-0.5V9.7c0-0.3,0.2-0.5,0.5-0.5c0.3,0,0.5,0.2,0.5,0.5v2.5
				C33.8,12.5,33.6,12.7,33.3,12.7"/>
			<path class="st4" d="M35.1,12.9c-0.3,0-0.5-0.2-0.5-0.5V10c0-0.3,0.2-0.5,0.5-0.5c0.3,0,0.5,0.2,0.5,0.5v2.5
				C35.6,12.7,35.4,12.9,35.1,12.9"/>
			<path class="st4" d="M36.9,13.2c-0.3,0-0.5-0.2-0.5-0.5v-2.4c0-0.3,0.2-0.5,0.5-0.5c0.3,0,0.5,0.2,0.5,0.5v2.4
				C37.4,12.9,37.2,13.2,36.9,13.2"/>
			<path class="st4" d="M38.6,13.4c-0.3,0-0.5-0.2-0.5-0.5v-2.4c0-0.3,0.2-0.5,0.5-0.5c0.3,0,0.5,0.2,0.5,0.5v2.4
				C39.1,13.1,38.9,13.4,38.6,13.4"/>
			<path class="st4" d="M29.1,2l1.6,0.3v31.2l-1.6,0V2 M29.1,1c-0.2,0-0.5,0.1-0.7,0.2c-0.2,0.2-0.4,0.5-0.4,0.8v31.5
				c0,0.6,0.4,1,1,1l1.6,0c0,0,0,0,0,0c0.3,0,0.5-0.1,0.7-0.3c0.2-0.2,0.3-0.5,0.3-0.7V2.3c0-0.5-0.4-0.9-0.9-1L29.3,1
				C29.3,1,29.2,1,29.1,1"/>
			<path class="st4" d="M41.1,4l1.5,0.2v29.6l-1.5,0V4 M41.1,3c-0.2,0-0.5,0.1-0.7,0.2C40.2,3.4,40,3.7,40,4v29.8c0,0.6,0.4,1,1,1
				l1.5,0c0,0,0,0,0,0c0.3,0,0.5-0.1,0.7-0.3c0.2-0.2,0.3-0.5,0.3-0.7V4.2c0-0.5-0.4-0.9-0.9-1L41.2,3C41.2,3,41.1,3,41.1,3"/>
			<path class="st4" d="M30,1.6c-0.3,0-0.5-0.2-0.5-0.5V0.5C29.4,0.2,29.7,0,30,0c0.3,0,0.5,0.2,0.5,0.5v0.6
				C30.5,1.4,30.2,1.6,30,1.6"/>
			<path class="st4" d="M41.8,3.7c-0.3,0-0.5-0.2-0.5-0.5V2.6c0-0.3,0.2-0.5,0.5-0.5c0.3,0,0.5,0.2,0.5,0.5v0.6
				C42.3,3.4,42.1,3.7,41.8,3.7"/>
			<path class="st4" d="M31.8,8.1L40,9.3v5.3l-8.2-0.9V8.1z M30.8,7v7.7l10.3,1.1V8.4L30.8,7z"/>
			<path class="st4" d="M14.4,27.5c-0.1,0-0.3-0.1-0.4-0.2l-6.9-6.9c-0.2-0.2-0.2-0.5,0-0.7c0.2-0.2,0.5-0.2,0.7,0l6.9,6.9
				c0.2,0.2,0.2,0.5,0,0.7C14.7,27.5,14.6,27.5,14.4,27.5"/>
			<path class="st4" d="M7.5,27.2c-0.1,0-0.3-0.1-0.4-0.2c-0.2-0.2-0.2-0.5,0-0.7l6.9-6c0.2-0.2,0.5-0.2,0.7,0
				c0.2,0.2,0.2,0.5,0,0.7l-6.9,6C7.8,27.1,7.7,27.2,7.5,27.2"/>
			<path class="st4" d="M14.4,35.3c-0.1,0-0.3,0-0.4-0.1l-6.9-6.7c-0.2-0.2-0.2-0.5,0-0.7c0.2-0.2,0.5-0.2,0.7,0l6.9,6.7
				c0.2,0.2,0.2,0.5,0,0.7C14.7,35.3,14.6,35.3,14.4,35.3"/>
			<path class="st4" d="M7.5,35.2c-0.1,0-0.3-0.1-0.4-0.2c-0.2-0.2-0.2-0.5,0-0.7l6.9-6.2c0.2-0.2,0.5-0.2,0.7,0
				c0.2,0.2,0.2,0.5,0,0.7l-6.9,6.2C7.8,35.1,7.7,35.2,7.5,35.2"/>
			<path class="st4" d="M7.5,20.1l6.9,0.5V27l-6.9-0.4V20.1 M7.5,19c-0.3,0-0.5,0.1-0.7,0.3c-0.2,0.2-0.3,0.5-0.3,0.8v6.6
				c0,0.5,0.4,1,1,1l6.9,0.4c0,0,0,0,0.1,0c0.3,0,0.5-0.1,0.7-0.3c0.2-0.2,0.3-0.5,0.3-0.7v-6.4c0-0.5-0.4-1-1-1L7.5,19
				C7.6,19,7.6,19,7.5,19"/>
			<path class="st4" d="M7.5,28.1l7,0.3v6.4l-7-0.1V28.1 M7.5,27.1c-0.3,0-0.5,0.1-0.7,0.3c-0.2,0.2-0.3,0.5-0.3,0.7v6.6
				c0,0.6,0.4,1,1,1l7,0.1c0,0,0,0,0,0c0.3,0,0.5-0.1,0.7-0.3c0.2-0.2,0.3-0.5,0.3-0.7v-6.4c0-0.6-0.4-1-1-1L7.5,27.1
				C7.6,27.1,7.6,27.1,7.5,27.1"/>
			<path class="st4" d="M8.6,17.8c-0.3,0-0.5-0.2-0.5-0.5v-2c0-0.3,0.2-0.5,0.5-0.5c0.3,0,0.5,0.2,0.5,0.5v2
				C9.1,17.5,8.8,17.8,8.6,17.8"/>
			<path class="st4" d="M10.2,17.9c-0.3,0-0.5-0.2-0.5-0.5v-2c0-0.3,0.2-0.5,0.5-0.5c0.3,0,0.5,0.2,0.5,0.5v2
				C10.7,17.7,10.5,17.9,10.2,17.9"/>
			<path class="st4" d="M11.8,18.1c-0.3,0-0.5-0.2-0.5-0.5v-2c0-0.3,0.2-0.5,0.5-0.5c0.3,0,0.5,0.2,0.5,0.5v2
				C12.3,17.8,12.1,18.1,11.8,18.1"/>
			<path class="st4" d="M13.4,18.2c-0.3,0-0.5-0.2-0.5-0.5v-2c0-0.3,0.2-0.5,0.5-0.5c0.3,0,0.5,0.2,0.5,0.5v2
				C13.9,18,13.7,18.2,13.4,18.2"/>
			<path class="st4" d="M4.8,9.1l1.5,0.2v25.4l-1.5,0V9.1 M4.8,8C4.5,8,4.3,8.1,4.1,8.3C3.9,8.5,3.8,8.8,3.8,9.1v25.6
				c0,0.6,0.4,1,1,1l1.5,0c0,0,0,0,0,0c0.3,0,0.5-0.1,0.7-0.3c0.2-0.2,0.3-0.5,0.3-0.7V9.2c0-0.5-0.4-1-0.9-1L4.9,8
				C4.9,8,4.8,8,4.8,8"/>
			<path class="st4" d="M15.6,10.4l1.3,0.2v24.3l-1.3,0V10.4 M15.6,9.3c-0.3,0-0.5,0.1-0.7,0.3c-0.2,0.2-0.3,0.5-0.3,0.8v24.5
				c0,0.6,0.4,1,1,1l1.3,0c0,0,0,0,0,0c0.3,0,0.5-0.1,0.7-0.3c0.2-0.2,0.3-0.5,0.3-0.7V10.5c0-0.5-0.4-1-0.9-1l-1.3-0.2
				C15.7,9.3,15.7,9.3,15.6,9.3"/>
			<path class="st4" d="M5.5,8.8C5.2,8.8,5,8.6,5,8.3V7.8c0-0.3,0.2-0.5,0.5-0.5C5.8,7.3,6,7.5,6,7.8v0.5C6,8.6,5.8,8.8,5.5,8.8"/>
			<path class="st4" d="M16.3,10.2c-0.3,0-0.5-0.2-0.5-0.5V9.2c0-0.3,0.2-0.5,0.5-0.5c0.3,0,0.5,0.2,0.5,0.5v0.5
				C16.8,9.9,16.6,10.2,16.3,10.2"/>
			<path class="st4" d="M7.3,14.2l7.3,0.8v4l-7.3-0.6V14.2z M6.2,13v6.2l9.4,0.8v-6L6.2,13z"/>
			<path class="st5" d="M42.5,35.8c0-0.1,0-0.1,0-0.1c0,0,0,0,0-0.1c0,0,0,0,0-0.1c-0.1-0.2-2.9-3.7-8.2-5c1-0.9,1.6-2.1,1.6-3.4
				c0-2-1.3-3.3-1.9-3.8c0.2-0.4,0.3-0.9,0.3-1.4c0-1.4-0.6-2.8-1.9-3.9c-0.9-0.8-2-1.1-3-1.3c0,0,0,0,0,0c-0.1-0.1-1.7-3.2-5.6-3.2
				c-2.9,0-4.4,1.4-5.1,2.1c-0.4-0.3-0.9-0.5-1.4-0.6c-1.4-0.2-2.9,0.4-3.9,1.7c-1.6,2-1.5,4.2-1.4,5.1c-1.4,0.9-2.8,2.5-2.8,4.9
				c0,1.6,0.5,3.1,1.5,4.5c-3.6,1.5-6,4.8-6.1,5c0,0,0,0.1,0,0.1c0,0,0,0,0,0c0,0.1,0,0.1,0,0.2c0,0,0,0,0,0c0,0,0,0,0,0
				c0,0.1,0,0.1,0,0.2c0,0,0,0,0,0c0,0,0,0,0,0c0.1,0.2,1.3,3,4.6,4.6c-2,0.6-4.3,1.1-7.3,1.1c-0.3,0-0.5,0.2-0.5,0.5
				c0,0.3,0.2,0.5,0.5,0.5c3.9,0,6.6-0.8,9-1.6c1.7-0.5,3.3-1,4.8-1c3.2,0,4.9,1.7,4.9,1.7l0.7,0.7c0.3-0.2,0.6-0.5,0.9-0.7
				c0.2-0.1,0.3-0.3,0.5-0.4c0.1-0.1,0.3-0.2,0.4-0.3c0.2-0.2,0.4-0.3,0.6-0.4c0.1-0.1,0.1-0.1,0.2-0.2c0.2-0.1,0.4-0.3,0.6-0.4
				c0.3-0.2,0.7-0.4,1.1-0.5c0.4-0.2,0.9-0.3,1.5-0.4c0.3-0.1,0.7-0.1,1-0.2c0.7-0.1,1.4-0.2,2.2-0.2c0.3,0,0.6,0,0.9,0
				c0.1,0,0.2,0,0.3,0c1.4,0.1,2.7,0.5,3.7,1c0.4,0.2,0.8,0.4,1.1,0.6c0.1,0,0.1,0,0.2-0.1c0,0,0,0,0,0c0,0,0,0,0,0
				c3.8-1.9,6-4.9,6.1-5c0,0,0-0.1,0-0.1c0,0,0,0,0-0.1C42.5,36,42.5,35.9,42.5,35.8C42.5,35.8,42.5,35.8,42.5,35.8
				C42.5,35.8,42.5,35.8,42.5,35.8"/>
			<path class="st5" d="M21.1,45.1l-1.5-1.5c-0.1-0.1-1.4-1.3-4-1.3c-1.4,0-2.8,0.4-4.5,0.9c-2.5,0.8-5.3,1.6-9.4,1.6
				c-1,0-1.8-0.8-1.8-1.8c0-1,0.8-1.8,1.8-1.8c1.6,0,3-0.2,4.3-0.4c-1.9-1.6-2.6-3.4-2.7-3.6l0-0.1c0-0.1-0.1-0.2-0.1-0.3l0-0.1
				l0-0.4l0-0.1c0-0.1,0.1-0.3,0.1-0.4l0.1-0.1c0-0.1,0.1-0.1,0.1-0.2c0.2-0.3,2.2-3.1,5.3-4.8c-0.6-1.2-1-2.6-1-4
				c0-2.2,0.9-4.1,2.8-5.5c0-1.3,0.2-3.4,1.8-5.3c1.4-1.7,3.3-2.5,5.1-2.2c0.3,0.1,0.7,0.2,1,0.3c1-0.9,2.7-1.8,5.3-1.8
				c3.3,0,5.5,1.9,6.4,3.3c1.2,0.3,2.2,0.8,3,1.5c1.5,1.3,2.3,3.1,2.3,4.8c0,0.3-0.1,0.7-0.1,1c0.8,0.8,1.7,2.2,1.7,4.2
				c0,1-0.3,1.9-0.7,2.7c4.4,1.6,6.8,4.5,7.1,4.9c0.1,0.1,0.1,0.2,0.1,0.2c0,0.1,0.1,0.1,0.1,0.2c0,0.1,0.1,0.2,0.1,0.3l0,0.1l0,0.4
				l0,0c0,0.1,0,0.3-0.1,0.4l-0.1,0.2c0,0-0.1,0.1-0.1,0.3C43.3,37,41,40.2,37,42.3l-0.2,0.1c0,0-0.1,0-0.1,0l-0.7,0.3l-0.6-0.4
				c-0.3-0.2-0.7-0.4-1-0.6c-1.1-0.5-2.2-0.8-3.2-0.8l-0.1,0c-0.3,0-0.7,0-1,0c-0.7,0-1.4,0.1-2.1,0.2c-0.3,0.1-0.6,0.1-0.9,0.2
				c-0.5,0.1-0.9,0.2-1.3,0.4c-0.3,0.1-0.6,0.3-0.9,0.4c-0.2,0.1-0.3,0.2-0.4,0.3c-0.1,0.1-0.1,0.1-0.2,0.2
				c-0.2,0.1-0.4,0.3-0.6,0.5l-0.4,0.3c-0.2,0.1-0.3,0.2-0.5,0.4c-0.3,0.2-0.6,0.4-0.9,0.7L21.1,45.1z M15.6,39.9
				c3.3,0,5.2,1.5,5.7,2c0,0,0,0,0.1,0c0.2-0.1,0.4-0.3,0.5-0.4l0.4-0.3c0.2-0.2,0.4-0.3,0.6-0.4c0.1,0,0.1-0.1,0.2-0.1
				c0.2-0.2,0.5-0.3,0.7-0.5c0.4-0.2,0.8-0.4,1.3-0.6c0.5-0.2,1-0.4,1.6-0.5c0.4-0.1,0.7-0.2,1.1-0.2c0.7-0.1,1.5-0.2,2.4-0.2
				c0.4,0,0.8,0,1.2,0l0.1,0c1.4,0.1,2.9,0.4,4.2,1.1c0.2,0.1,0.4,0.2,0.6,0.3c2.5-1.3,4.2-3.2,4.9-4c-0.9-0.9-3.3-3.2-7.1-4.1
				l-2.3-0.6l1.8-1.6c0.7-0.6,1.1-1.5,1.1-2.5c0-1.5-1-2.5-1.4-2.9l-0.7-0.6l0.3-0.8c0.1-0.3,0.2-0.6,0.2-1c0-1-0.5-2.1-1.4-2.9
				c-0.6-0.5-1.4-0.8-2.4-1l-0.7-0.1l-0.3-0.6c-0.2-0.4-1.6-2.4-4.5-2.4c-2.3,0-3.6,1.1-4.1,1.7l-0.8,0.9l-0.9-0.7
				c-0.3-0.2-0.5-0.3-0.8-0.4c-0.9-0.2-2,0.3-2.8,1.3c-1.3,1.6-1.3,3.5-1.2,4.2l0.1,0.8L12.6,23c-1.5,1-2.2,2.2-2.2,3.9
				c0,1.3,0.4,2.6,1.3,3.8l0.9,1.3l-1.4,0.6c-2.7,1.1-4.6,3.4-5.3,4.2c0.4,0.7,1.5,2.5,3.8,3.6l0.9,0.5
				C12.3,40.3,13.9,39.9,15.6,39.9 M5.5,37.1L5.5,37.1C5.5,37.1,5.5,37.1,5.5,37.1 M5.5,37.1C5.5,37.1,5.5,37.1,5.5,37.1
				C5.5,37.1,5.5,37.1,5.5,37.1 M41.4,36.2C41.4,36.2,41.4,36.2,41.4,36.2C41.4,36.2,41.4,36.2,41.4,36.2"/>
			<path class="st6" d="M42.9,53c-0.7,0-6.6,0.2-7.8,0.5c-0.9,0.2-2.4-0.2-3-0.3c-0.3-0.1-0.6,0.1-0.6,0.3c-0.1,0.3,0.1,0.6,0.3,0.6
				c0.1,0,1.4,0.4,2.6,0.4c0.3,0,0.6,0,0.9-0.1c0.9-0.2,5.8-0.4,7.5-0.4c0.3,0,0.5-0.2,0.5-0.5C43.4,53.2,43.2,53,42.9,53"/>
			<line class="st7" x1="42" y1="35.9" x2="23.1" y2="36.7"/>
			<line class="st7" x1="26.2" y1="36.4" x2="28.9" y2="30.8"/>
			<line class="st7" x1="28.9" y1="36.4" x2="33.3" y2="30.9"/>
			<line class="st7" x1="33.3" y1="36.2" x2="36.4" y2="31.8"/>
			<line class="st7" x1="36.8" y1="36.1" x2="38.6" y2="33"/>
			<line class="st7" x1="36.8" y1="36.1" x2="39" y2="38.9"/>
			<line class="st7" x1="33.3" y1="36.2" x2="36.1" y2="40.8"/>
			<line class="st7" x1="28.9" y1="36.4" x2="30.9" y2="40"/>
			<line class="st7" x1="26.2" y1="36.4" x2="27.5" y2="40.5"/>
			<line class="st7" x1="4.9" y1="36.7" x2="21.5" y2="36.7"/>
			<line class="st7" x1="17.8" y1="36.7" x2="15.8" y2="31.3"/>
			<line class="st7" x1="14.4" y1="36.7" x2="13.2" y2="31.3"/>
			<line class="st7" x1="11.1" y1="36.7" x2="8.4" y2="33.2"/>
			<line class="st7" x1="11.1" y1="36.7" x2="8.4" y2="40.6"/>
			<line class="st7" x1="14.4" y1="36.7" x2="11.4" y2="41.2"/>
			<line class="st7" x1="17.8" y1="36.7" x2="15.6" y2="40.6"/>
			<line class="st7" x1="27.1" y1="31.2" x2="27.4" y2="31.3"/>
			<path class="st8" d="M42.5,36c0-0.1,0-0.1,0-0.2c0,0,0,0,0,0c0,0,0,0,0,0c0-0.1,0-0.1,0-0.1c0,0,0,0,0-0.1c0,0,0,0,0-0.1
				c-0.1-0.2-2.9-3.7-8.2-5c1-0.9,1.6-2.1,1.6-3.4c0-2-1.3-3.3-1.9-3.8c0.2-0.4,0.3-0.9,0.3-1.4c0-1.4-0.6-2.8-1.9-3.9
				c-0.9-0.8-2-1.1-3-1.3c0,0,0,0,0,0c-0.1-0.1-1.7-3.2-5.6-3.2c-2.9,0-4.4,1.4-5.1,2.1c-0.4-0.3-0.9-0.5-1.4-0.6
				c-1.4-0.2-2.9,0.4-3.9,1.7c-1.6,2-1.5,4.2-1.4,5.1c-1.4,0.9-2.8,2.5-2.8,4.9c0,1.6,0.5,3.1,1.5,4.5c-3.6,1.5-6,4.8-6.1,5
				c0,0,0,0.1,0,0.1c0,0,0,0,0,0c0,0.1,0,0.1,0,0.2c0,0,0,0,0,0c0,0,0,0,0,0c0,0.1,0,0.1,0,0.2c0,0,0,0,0,0c0,0,0,0,0,0
				c0.1,0.2,1.3,3,4.6,4.6c-2,0.6-4.3,1.1-7.3,1.1c-0.3,0-0.5,0.2-0.5,0.5s0.2,0.5,0.5,0.5c3.9,0,6.6-0.8,9-1.6c1.7-0.5,3.3-1,4.8-1
				c3.2,0,4.9,1.7,4.9,1.7l1.1,1.1c0.1,0.1,0.2,0.2,0.4,0.2c0.1,0,0.3-0.1,0.4-0.2c0.2-0.2,0.2-0.5,0-0.7L22,42.9v-4.2V35
				c0-0.1,0.1-0.3,0.3-0.3c0.1,0,0.3,0.1,0.3,0.3v3.7v3.8c0,0.3,0.2,0.5,0.5,0.5c0.3,0,0.5-0.2,0.5-0.5v-2.1
				c0.3,0.4,0.8,0.8,1.4,1.1c0.2,0.1,0.6,0.1,0.7-0.2c0.1-0.2,0.1-0.6-0.2-0.7c-1.3-0.8-1.8-1.7-1.9-2v-1.4l2.3-0.1l1.1,3.6
				c0.1,0.2,0.3,0.4,0.5,0.4c0.1,0,0.1,0,0.2,0c0.3-0.1,0.4-0.4,0.3-0.6L27,37l1.6-0.1l1.9,3.3c0.1,0.2,0.3,0.3,0.5,0.3
				c0.1,0,0.2,0,0.3-0.1c0.2-0.1,0.3-0.5,0.2-0.7l-1.6-2.9l3.3-0.1l2.3,3.8c-0.1,0.1-0.3,0.1-0.4,0.2c-0.3,0.1-0.4,0.4-0.3,0.7
				c0.1,0.2,0.3,0.3,0.5,0.3c0.1,0,0.1,0,0.2,0c0.3-0.1,0.7-0.3,1-0.5c0,0,0,0,0,0c0,0,0,0,0,0c3.8-1.9,6-4.9,6.1-5
				C42.4,36.1,42.4,36.1,42.5,36C42.5,36.1,42.5,36,42.5,36 M27,36l2.2-4.8c0.3-0.1,0.6-0.1,0.9-0.1c0.8,0,1.5,0.1,2.2,0.2l-3.7,4.7
				L27,36z M18.7,18.5c0.1-0.1,0.3-0.2,0.4-0.3c0.4,0.5,1.3,1.3,2.5,1.5c0.2,0,0.3,0,0.5,0c0.9,0,1.8-0.3,2.8-1
				c-0.3,0.6-0.8,1.4-1.8,2.3c-0.4,0.4-1,0.6-1.5,0.6c-1.4-0.1-2.9-1.4-3.4-1.9c0-0.3,0.1-0.5,0.1-0.8C18.5,19,18.6,18.7,18.7,18.5
				 M20.4,18.1c0.2-0.4,0.8-1.1,2-1.1c0.8,0,1.2,0.6,1.4,1.3c-0.7,0.4-1.4,0.5-2,0.4C21.2,18.7,20.8,18.4,20.4,18.1 M18.3,21.2
				c0.8,0.7,2.1,1.5,3.4,1.6c0.9,0,1.6-0.3,2.3-0.9c1.8-1.7,2.3-3.1,2.4-3.9c0.4,0.1,1,0.2,1.4,0.7c0.3,0.3,0.4,0.7,0.3,1.2
				c-0.1,1.2-1.4,3.8-3.7,4.9c-1.8,0.9-3.7,0.7-5.8-0.6C18.4,23.2,18.2,22.2,18.3,21.2 M22.1,26.2c1.1,0,2-0.3,2.7-0.6
				c2.6-1.2,4.1-4.1,4.3-5.7c0.9,0.8,2.4,2.4,2.4,5.5c0,2.2-0.7,3.8-2,4.7c0,0,0,0,0,0c-0.3,0-0.5,0.1-0.8,0.2c0,0,0,0,0,0
				c-0.4,0.1-0.9,0.3-1.3,0.5l-0.2,0c0,0,0,0,0,0c0,0,0,0,0,0c0,0-4.7-0.6-7.2-3.9c-0.3-0.4-0.5-0.8-0.8-1.2
				C20.3,26,21.3,26.2,22.1,26.2 M33.5,31.5c0.7,0.2,1.4,0.4,2.1,0.6L33,35.7l-3,0.1L33.5,31.5z M36.5,32.5c0.5,0.2,0.9,0.4,1.3,0.7
				l-1.3,2.4l-2.2,0.1L36.5,32.5z M38.7,33.7c0.9,0.6,1.6,1.2,2.1,1.7l-3.1,0.1L38.7,33.7z M34.8,27.2c0,1.3-0.8,2.5-1.9,3.1
				c-0.6-0.1-1.1-0.1-1.7-0.2c0.8-0.9,1.5-2.3,1.5-4.7c0-0.1,0-0.2,0-0.3c0.3-0.3,0.6-0.6,0.9-0.9C33.9,24.8,34.8,25.8,34.8,27.2
				 M33.2,21.9c0,0.7-0.3,1.4-0.8,1.9c-0.6-3.5-3-5-3.5-5.3c-0.1-0.2-0.2-0.4-0.4-0.6c-0.1-0.1-0.1-0.1-0.2-0.2
				c1.1,0.1,2.4,0.3,3.4,1.1C32.7,19.7,33.2,20.8,33.2,21.9 M23.7,14.7c2.4,0,3.7,1.3,4.3,2c-1.2,0-2.2,0.2-2.3,0.2c0,0,0,0,0,0
				c0,0,0,0-0.1,0c0,0,0,0,0,0c0,0,0,0,0,0c0,0-0.1,0-0.1,0.1c0,0,0,0,0,0c-0.3,0.3-0.6,0.5-0.8,0.7c-0.4-1.1-1.2-1.7-2.3-1.7
				c-1.4,0-2.2,0.7-2.7,1.3c-0.1-0.3-0.2-0.5-0.4-0.8C19.8,15.9,21.1,14.7,23.7,14.7 M14.1,17.5c0.8-1,1.9-1.5,3-1.4
				c0.5,0.1,0.9,0.3,1.2,0.7c0,0,0,0,0,0c0.1,0.1,0.2,0.3,0.3,0.5c-0.2,0.1-0.4,0.3-0.6,0.4c-0.3,0.3-0.5,0.6-0.5,0.9
				c-0.4,0.2-1.4,0.9-2.3,2c-0.4,0.1-1.3,0.3-2.3,0.8C12.8,20.6,13,19,14.1,17.5 M10.1,26.9c0-1.8,0.9-3.3,2.6-4.3
				c0.6-0.3,1.1-0.5,1.6-0.7c-0.2,0.4-0.4,0.9-0.5,1.4c-0.6,2.2-0.2,4.7,1.3,7.4c-0.4,0-0.7,0-1.1,0c-0.9,0-1.7,0.1-2.5,0.4
				C10.6,29.8,10.1,28.4,10.1,26.9 M19,40.7c-0.7-0.3-1.5-0.5-2.6-0.6l1.7-2.9H21v1.4C20.9,38.9,20.4,39.9,19,40.7
				C19,40.7,19,40.7,19,40.7 M12.5,40.5l2.2-3.3h2.3l-1.7,2.9C14.3,40.1,13.4,40.3,12.5,40.5 M10.6,41.1L10.4,41
				c-0.5-0.2-0.9-0.4-1.3-0.6l2.2-3.2h2.1L11,40.9c0,0,0,0,0,0C10.9,41,10.7,41,10.6,41.1 M12.8,31.8l0.9,4.4h-2.4l-2.2-2.8
				C10.2,32.7,11.5,32.1,12.8,31.8 M15.5,31.8l1.6,4.4h-2.3l-0.9-4.5c0.1,0,0.1,0,0.2,0C14.6,31.7,15,31.8,15.5,31.8 M21,35v1.2
				h-2.8L16.6,32c2.7,0.6,4,2,4.4,2.4V35z M8.3,34l1.7,2.2H6C6.5,35.6,7.3,34.8,8.3,34 M5.8,37.2h4.3l-1.8,2.6
				C7,38.9,6.2,37.9,5.8,37.2 M20.1,41.2c0.4-0.3,0.7-0.6,0.9-0.8v1.5C20.8,41.7,20.5,41.5,20.1,41.2 M22.3,33.7
				c-0.2,0-0.3,0-0.5,0.1c-0.4-0.5-2.1-2.3-5.4-2.9c-1.7-2.7-2.2-5.1-1.7-7.3c0.5-1.8,1.7-2.9,2.5-3.6c-0.2,1.6,0,3.1,0.4,4.4
				c0,0,0,0.1,0,0.1c0.3,1,0.8,2,1.4,2.8c2,2.7,5.1,3.7,6.8,4.1c-1.6,0.9-2.9,2.1-3.1,2.3C22.6,33.7,22.5,33.7,22.3,33.7 M23.6,35
				v-0.5c0.5-0.5,2.4-2,4.3-2.8l-2.1,4.4l-2.3,0.1V35z M34.2,36.7l2.4-0.1l1.6,2.2c-0.6,0.4-1.3,0.9-2,1.3L34.2,36.7z M39,38.2
				l-1.2-1.6l3-0.1C40.4,36.9,39.8,37.5,39,38.2"/>
			<path class="st8" d="M10.1,56c-3-3.9-8.3-2.9-8.5-2.9c-0.3,0.1-0.5,0.3-0.4,0.6c0.1,0.3,0.3,0.5,0.6,0.4c0,0,4.8-0.9,7.5,2.5
				c0.2,0.3,0.5,0.6,0.8,0.8c0.1,0.1,0.2,0.1,0.3,0.1c0.1,0,0.3-0.1,0.4-0.2c0.2-0.2,0.2-0.5,0-0.7C10.6,56.5,10.3,56.2,10.1,56"/>
			<path class="st8" d="M32,52.8l-0.1-0.1c-0.3-0.3-4-4-6.8-6.8c-0.2-0.2-0.5-0.2-0.7,0c-0.2,0.2-0.2,0.5,0,0.7
				c2.8,2.8,6.4,6.4,6.8,6.8l0.1,0.1c0.5,0.5,1.9,1.9,1.9,2.9c0,0.3-0.1,0.5-0.3,0.7c-0.3,0.3-0.6,0.4-0.9,0.4
				c-0.7,0-1.4-0.6-1.5-0.8c-0.3-0.3-0.6-0.6-0.8-0.8c-0.1-0.1-0.2-0.2-0.2-0.2l-2.2-2.2l-0.7,0.7l2.2,2.2c0.1,0.1,0.2,0.2,0.3,0.3
				c0.5,0.4,1.6,1.4,1.6,2.2c0,0.2-0.1,0.3-0.2,0.5c-0.2,0.2-0.5,0.4-0.7,0.3c-0.5,0-1.1-0.5-1.2-0.7c0,0,0,0,0,0
				c-0.1-0.2-0.3-0.4-0.5-0.6l-2.7-2.7l-0.7,0.7l2.7,2.7c0.4,0.4,0.7,0.8,0.8,1.2c0.1,0.3,0,0.6-0.3,0.9c-0.5,0.5-1.3,0.1-1.5,0
				c-0.1-0.2-0.3-0.4-0.5-0.6c-0.6-0.6-2.2-2.4-2.2-2.4c-0.2-0.2-0.5-0.2-0.7,0c-0.2,0.2-0.2,0.5,0,0.7c0.1,0.1,1.6,1.8,2.3,2.5
				c0.3,0.3,0.4,0.6,0.5,0.9c0.1,0.3,0,0.6-0.3,0.9c-0.1,0.1-0.2,0.1-0.4,0.1c-0.3,0-1.2-0.2-2.7-1.9c-0.2-0.2-0.5-0.2-0.7,0
				c-0.2,0.2-0.2,0.5,0,0.7c1.4,1.5,2.5,2.2,3.5,2.2h0c0.4,0,0.8-0.2,1.1-0.4c0.4-0.4,0.6-0.9,0.6-1.4c0.2,0,0.4,0.1,0.5,0.1
				c0.5,0,0.9-0.1,1.4-0.6c0.4-0.4,0.6-0.9,0.6-1.4c0.2,0.1,0.4,0.1,0.6,0.1c0,0,0.1,0,0.1,0c0.5,0,1-0.2,1.4-0.6
				c0.4-0.4,0.5-0.8,0.5-1.3c0-0.1,0-0.3-0.1-0.4c0.1,0,0.3,0,0.4,0h0c0.6,0,1.1-0.2,1.6-0.7c0.4-0.4,0.6-0.9,0.6-1.4
				C34.2,55,32.7,53.5,32,52.8"/>
			<path class="st6" d="M21.3,58.9c-0.2,0-0.3,0-0.5,0.1c0.2-0.4,0.3-0.8,0.3-1.2c0-0.5-0.2-1-0.6-1.4c-0.3-0.3-0.7-0.5-1.1-0.5
				c-0.3,0-0.5,0.1-0.8,0.2c0-0.6-0.3-1-0.6-1.3c-0.8-0.8-1.8-0.5-2.6,0c0,0,0-0.1,0-0.1c0-0.4-0.2-0.8-0.5-1.1
				c-0.3-0.2-0.6-0.4-0.9-0.4c-0.9,0-1.7,0.8-2.3,1.5l-0.1,0.1c-0.4,0.4-1,1.1-1.5,1.8c-0.8,1.3-0.5,2.1-0.1,2.5
				c0.3,0.3,0.6,0.4,1,0.4c0.2,0,0.3,0,0.5-0.1c-0.2,0.7-0.1,1.3,0.4,1.8c0.4,0.4,0.8,0.6,1.3,0.6c0.2,0,0.4,0,0.6-0.1
				c-0.1,0.6,0,1.1,0.5,1.5c0.3,0.3,0.7,0.5,1.2,0.5h0c0.5,0,1-0.2,1.5-0.6c-0.1,0.5,0,1,0.3,1.4c0.2,0.3,0.6,0.4,1,0.4h0
				c1.5,0,3.6-2.3,4.2-3.8c0.4-1.1,0.2-1.6-0.1-1.9C22.1,59,21.7,58.9,21.3,58.9 M10.8,58.3c-0.3-0.3,0-0.9,0.2-1.2
				c0.4-0.7,1-1.3,1.3-1.6l0.1-0.1c0.4-0.4,1.2-1.2,1.6-1.2c0.1,0,0.1,0,0.2,0.1c0.1,0.1,0.1,0.2,0.1,0.3c0,0.6-0.8,1.7-1.5,2.5
				l-0.2,0.2c-0.4,0.4-1.1,1.2-1.6,1.2C11,58.5,10.9,58.4,10.8,58.3 M12.7,60.5c-0.6-0.6,0.5-2.3,1.9-3.6c1.4-1.4,2.2-1.8,2.7-1.3
				c0.2,0.2,0.6,0.6-0.2,1.5c-0.3,0.3-0.6,0.5-0.8,0.8c-0.6,0.6-1.4,1.5-1.9,2.4C14,60.6,13.2,61,12.7,60.5 M15,62.4
				c-0.6-0.6,0.5-2.4,2-3.9c0.2-0.2,0.5-0.5,0.8-0.8c0,0,0,0,0,0c0,0,0,0,0,0c0.5-0.5,1.1-0.9,1.5-0.9c0.2,0,0.3,0.1,0.4,0.2
				c0.2,0.2,0.3,0.4,0.3,0.7c0,1-1.4,2.4-2,3L18,60.8c-0.1,0.1-0.2,0.2-0.2,0.2c-0.6,0.6-1.5,1.6-2.2,1.6
				C15.3,62.6,15.2,62.6,15,62.4 M21.5,60.8C21,62.2,19.2,64,18.3,64c-0.1,0-0.2,0-0.2-0.1c-0.4-0.5,0.3-1.7,1.6-3
				c0.6-0.6,1.2-1,1.6-1c0.1,0,0.2,0,0.3,0.1C21.7,60.1,21.7,60.4,21.5,60.8"/>
			<path class="st6" d="M18.4,48.9c0-2.2,3.5-4.8,5.2-6c0.4-0.3,0.7-0.5,0.9-0.6c1.2-1,3.6-1.5,6.6-1.5c2.3,0,4.1,1,5.3,1.9
				c1.5,1.1,6.1,1.1,6.6,1.1c0.3,0,0.5-0.2,0.5-0.5c0-0.3-0.2-0.5-0.5-0.5c0,0,0,0,0,0c-1.9,0-5.1-0.2-6-0.9c-1.3-1-3.4-2.1-5.9-2.1
				c-3.2,0-5.8,0.6-7.2,1.8c-0.2,0.1-0.5,0.4-0.8,0.6c-2,1.4-5.6,4.1-5.7,6.9c0,0.3-0.2,2.8,0.9,4.1c0.4,0.5,1,0.7,1.6,0.7
				c0.6,0,1.1-0.2,1.4-0.5c0.7-0.8,0.7-2.2,0.6-3.3c0-0.4,0-1,0-1.2c0.6-0.8,1.9-1.9,2.8-1.9c0.3,0,0.5-0.2,0.5-0.5
				c0-0.3-0.2-0.5-0.5-0.5c-1.5,0-3.1,1.7-3.6,2.3c-0.3,0.4-0.3,1-0.2,1.8c0,0.9,0.1,2.1-0.3,2.5c-0.1,0.1-0.3,0.2-0.6,0.2
				c-0.4,0-0.6-0.1-0.9-0.4C18.3,51.5,18.3,49.6,18.4,48.9C18.4,49,18.4,49,18.4,48.9"/>
		</g>
	</g>
</g>
</svg>
