<?xml version="1.0" encoding="utf-8"?>
<!-- Generator: Adobe Illustrator 23.0.2, SVG Export Plug-In . SVG Version: 6.00 Build 0)  -->
<svg version="1.1" xmlns="http://www.w3.org/2000/svg" xmlns:xlink="http://www.w3.org/1999/xlink" x="0px" y="0px"
	 viewBox="0 0 240.5 65" style="enable-background:new 0 0 240.5 65;" xml:space="preserve">
<style type="text/css">
	.st0{display:none;}
	.st1{display:inline;fill:#FF0000;stroke:#000000;stroke-miterlimit:10;}
	.st2{enable-background:new    ;}
	.st3{fill:#FFFFFF;}
	.st4{clip-path:url(#SVGID_2_);}
	.st5{clip-path:url(#SVGID_4_);fill:#EFEB37;}
	.st6{clip-path:url(#SVGID_6_);fill:#EFEB37;}
	.st7{clip-path:url(#SVGID_8_);fill:#EFEB37;}
	.st8{clip-path:url(#SVGID_10_);fill:#EFEB37;}
	.st9{clip-path:url(#SVGID_12_);fill:#EFEB37;}
	.st10{clip-path:url(#SVGID_14_);fill:#EFEB37;}
	.st11{clip-path:url(#SVGID_16_);fill:#EFEB37;}
	.st12{clip-path:url(#SVGID_18_);fill:#EFEB37;}
	.st13{clip-path:url(#SVGID_20_);fill:#EFEB37;}
	.st14{clip-path:url(#SVGID_22_);fill:#EFEB37;}
	.st15{clip-path:url(#SVGID_24_);fill:#EFEB37;}
	.st16{clip-path:url(#SVGID_26_);fill:#EFEB37;}
	.st17{clip-path:url(#SVGID_28_);fill:#EFEB37;}
	.st18{clip-path:url(#SVGID_30_);fill:#EFEB37;}
	.st19{clip-path:url(#SVGID_32_);fill:#EFEB37;}
	.st20{clip-path:url(#SVGID_34_);fill:#EFEB37;}
	.st21{clip-path:url(#SVGID_36_);fill:#EFEB37;}
	.st22{clip-path:url(#SVGID_38_);fill:#EFEB37;}
	.st23{clip-path:url(#SVGID_40_);fill:#EFEB37;}
	.st24{clip-path:url(#SVGID_42_);fill:#EFEB37;}
	.st25{clip-path:url(#SVGID_44_);fill:#EFEB37;}
	.st26{clip-path:url(#SVGID_46_);fill:#EFEB37;}
	.st27{clip-path:url(#SVGID_48_);fill:#EFEB37;}
	.st28{clip-path:url(#SVGID_50_);fill:#EFEB37;}
	.st29{clip-path:url(#SVGID_52_);fill:#EFEB37;}
	.st30{clip-path:url(#SVGID_54_);fill:#EFEB37;}
	.st31{clip-path:url(#SVGID_56_);fill:#EFEB37;}
	.st32{clip-path:url(#SVGID_58_);fill:#EFEB37;}
	.st33{clip-path:url(#SVGID_60_);fill:#EFEB37;}
	.st34{clip-path:url(#SVGID_62_);fill:#EFEB37;}
	.st35{clip-path:url(#SVGID_64_);fill:#EC1F27;}
	.st36{clip-path:url(#SVGID_66_);fill:#EC1F27;}
	.st37{clip-path:url(#SVGID_68_);fill:#241E1F;}
	.st38{clip-path:url(#SVGID_70_);fill:none;}
	.st39{clip-path:url(#SVGID_72_);fill:none;}
	.st40{clip-path:url(#SVGID_74_);fill:none;}
	.st41{clip-path:url(#SVGID_76_);fill:none;}
	.st42{clip-path:url(#SVGID_78_);fill:none;}
	.st43{clip-path:url(#SVGID_80_);fill:none;}
	.st44{clip-path:url(#SVGID_82_);fill:none;}
	.st45{clip-path:url(#SVGID_84_);fill:none;}
	.st46{clip-path:url(#SVGID_86_);fill:none;}
	.st47{clip-path:url(#SVGID_88_);fill:none;}
	.st48{clip-path:url(#SVGID_90_);fill:none;}
	.st49{clip-path:url(#SVGID_92_);fill:none;}
	.st50{clip-path:url(#SVGID_94_);fill:none;}
	.st51{clip-path:url(#SVGID_96_);fill:none;}
	.st52{clip-path:url(#SVGID_98_);fill:none;}
	.st53{clip-path:url(#SVGID_100_);fill:none;}
	.st54{clip-path:url(#SVGID_102_);fill:none;}
	.st55{clip-path:url(#SVGID_104_);fill:#FFFFFF;}
	.st56{clip-path:url(#SVGID_106_);fill:#FFFFFF;}
	.st57{clip-path:url(#SVGID_108_);fill:#FFFFFF;}
	.st58{clip-path:url(#SVGID_110_);fill:#241E1F;}
	.st59{clip-path:url(#SVGID_112_);fill:#241E1F;}
</style>
<g id="Layer_2" class="st0">
	<rect class="st1" width="240.5" height="65"/>
</g>
<g id="Layer_1">
	<g class="st2">
		<path class="st3" d="M65.2,27.6c0,3.1-2.7,5.1-6.1,5.1c-2.7,0-5.3-1.4-6.3-3.8l2-1.3c1.1,1.8,2.8,2.5,4.3,2.5
			c1.4,0,3.3-0.6,3.3-2.5c0-1.6-1.4-2.2-3.7-3.1c-3.3-1.1-5.2-2.6-5.2-5.1c0-2.8,2.5-4.7,5.7-4.7c3.1,0,5.1,1.7,5.9,3.3l-1.9,1.4
			c-1.2-1.7-2.5-2.2-3.9-2.2s-2.8,0.7-2.8,2.2c0,1,0.7,1.7,2.9,2.6C62.2,23.3,65.2,24.3,65.2,27.6z"/>
		<path class="st3" d="M77.7,32.5h-2.1c-0.6,0-0.9-0.5-0.9-1.1v-0.9c-0.8,1.2-2,2.2-3.9,2.2c-2,0-3.7-1.1-3.7-3.7
			c0-2.7,2-3.6,4.9-3.9l2.6-0.3v-0.5c0-1.5-0.7-2.1-2.3-2.1c-1.6,0-2.8,0.5-3.5,1L68,21.2c1.4-0.8,2.9-1.3,4.7-1.3
			c3.1,0,4.7,1.4,4.7,4.5v7C77.5,31.9,77.5,32.2,77.7,32.5z M74.7,28.1v-1.3l-2.3,0.3c-1.6,0.2-2.5,0.5-2.5,1.8c0,1,0.6,1.5,2,1.5
			C73.8,30.4,74.6,29.2,74.7,28.1z"/>
		<path class="st3" d="M89.3,29.2l1.1,1.6c-1,0.8-2.2,1.8-4.5,1.8c-3.5,0-5.5-2.1-5.5-6.1v-0.7c0-3.9,1.9-6.1,5.5-6.1
			c2.3,0,3.5,1,4.5,1.8l-1.1,1.6c-1-0.7-1.7-1.1-3-1.1c-2,0-3.1,1-3.1,3.8v0.7c0,2.8,1.1,3.8,3.1,3.8C87.6,30.4,88.3,30,89.3,29.2z"
			/>
		<path class="st3" d="M99.3,22.3c-1.5,0-2.9,1-3.3,2.3v7.9h-2.8V20H96v2.2c0.5-1,1.7-2.4,3.5-2.4c0.3,0,0.6,0,0.8,0.1v2.5
			C100.1,22.4,99.7,22.3,99.3,22.3z"/>
		<path class="st3" d="M112,32.5h-2.1c-0.6,0-0.9-0.5-0.9-1.1v-0.9c-0.8,1.2-2,2.2-3.9,2.2c-2,0-3.7-1.1-3.7-3.7
			c0-2.7,2-3.6,4.9-3.9l2.6-0.3v-0.5c0-1.5-0.7-2.1-2.3-2.1c-1.6,0-2.8,0.5-3.5,1l-0.7-1.9c1.4-0.8,2.9-1.3,4.7-1.3
			c3.1,0,4.7,1.4,4.7,4.5v7C111.8,31.9,111.8,32.2,112,32.5z M109,28.1v-1.3l-2.3,0.3c-1.6,0.2-2.5,0.5-2.5,1.8c0,1,0.6,1.5,2,1.5
			C108.1,30.4,108.9,29.2,109,28.1z"/>
		<path class="st3" d="M132.2,24.3v8.2h-2.8v-8.2c0-1.5-0.6-2.1-1.8-2.1c-1.3,0-2,0.8-2.5,1.6v8.8h-2.8v-8.2c0-1.5-0.6-2.1-1.8-2.1
			c-1.3,0-2,0.8-2.5,1.6v8.8h-2.8V20h2.8v1.8c0.6-0.8,1.7-2,3.5-2c1.5,0,2.5,0.8,3.1,2h0.1c0.6-0.8,1.8-2,3.8-2
			C131.1,19.8,132.2,21.7,132.2,24.3z"/>
		<path class="st3" d="M135.1,26.7v-1c0-4,2.1-5.9,5.4-5.9c3.4,0,5.2,1.9,5.2,5.5c0,1.5-0.6,1.8-2.1,1.8h-5.7c0,2.3,1.1,3.2,3.3,3.2
			c1.2,0,2.2-0.3,3.2-1.1l1,1.5c-0.9,0.9-2.3,1.8-4.6,1.8C137.2,32.7,135.1,30.5,135.1,26.7z M143.1,25.3c0-2.3-1-3.2-2.6-3.2
			c-1.5,0-2.6,0.9-2.6,3.2H143.1z"/>
		<path class="st3" d="M159,24.2v8.3h-2.8v-8.3c0-1.4-0.6-2-1.9-2c-1.3,0-2.3,0.8-2.9,1.6v8.7h-2.8V20h2.8v1.8c0.6-0.8,1.9-2,3.9-2
			C157.7,19.8,159,21.6,159,24.2z"/>
		<path class="st3" d="M168.4,30.3v2c-0.8,0.3-1.5,0.4-2.1,0.4c-2.6,0-3.3-1.6-3.3-4.1v-6.3h-2.1V20h2.1v-3.1l2.8-0.3V20h2.7l0,2.2
			h-2.7v6.3C165.8,30,166.4,30.6,168.4,30.3z"/>
		<path class="st3" d="M170.6,26.6v-0.7c0-4.1,2.1-6.1,5.6-6.1c3.5,0,5.6,1.9,5.6,6.1v0.7c0,4.1-2.1,6.1-5.6,6.1
			C172.7,32.7,170.6,30.7,170.6,26.6z M179,26.6v-0.7c0-3-1.2-3.8-2.8-3.8c-1.6,0-2.8,0.8-2.8,3.8v0.7c0,3,1.2,3.8,2.8,3.8
			C177.8,30.4,179,29.6,179,26.6z"/>
		<path class="st3" d="M204,23.7c0,6.4-2.6,8.8-7.8,8.8h-4.9V15h4.9C201.4,15,204,17.4,204,23.7z M201.1,23.7c0-4.9-1.4-6.2-4.7-6.2
			h-2.3V30h2.3C199.7,30,201.1,28.7,201.1,23.7z"/>
		<path class="st3" d="M218.5,27.6c0,3.1-2.8,5.1-6.1,5.1c-2.7,0-5.3-1.4-6.3-3.8l2-1.3c1.1,1.8,2.8,2.5,4.3,2.5
			c1.4,0,3.3-0.6,3.3-2.5c0-1.6-1.4-2.2-3.7-3.1c-3.3-1.1-5.2-2.6-5.2-5.1c0-2.8,2.5-4.7,5.7-4.7c3.1,0,5.1,1.7,5.9,3.3l-1.9,1.4
			c-1.2-1.7-2.5-2.2-3.9-2.2c-1.5,0-2.8,0.7-2.8,2.2c0,1,0.7,1.7,2.9,2.6C215.6,23.3,218.5,24.3,218.5,27.6z"/>
		<path class="st3" d="M230.7,28.8h-6.5l-1,3.7h-2.9l5.2-17.5h4.1l5.2,17.5h-2.9L230.7,28.8z M230,26.3l-2.4-8.3h-0.4l-2.4,8.3H230z
			"/>
		<path class="st3" d="M59.9,43.1c0,3.2-1.3,4.4-3.9,4.4h-2.4v-8.7H56C58.6,38.8,59.9,39.9,59.9,43.1z M58.5,43.1
			c0-2.5-0.7-3.1-2.3-3.1H55v6.2h1.2C57.8,46.2,58.5,45.6,58.5,43.1z"/>
		<path class="st3" d="M61.2,44.6v-0.5c0-2,1-2.9,2.7-2.9c1.7,0,2.6,1,2.6,2.8c0,0.7-0.3,0.9-1,0.9h-2.8c0,1.1,0.6,1.6,1.7,1.6
			c0.6,0,1.1-0.1,1.6-0.5l0.5,0.8c-0.4,0.5-1.2,0.9-2.3,0.9C62.2,47.6,61.2,46.5,61.2,44.6z M65.2,43.9c0-1.1-0.5-1.6-1.3-1.6
			c-0.8,0-1.3,0.5-1.3,1.6H65.2z"/>
		<path class="st3" d="M76.3,43.4v4.1H75v-4.1c0-0.7-0.3-1-0.9-1c-0.6,0-1,0.4-1.2,0.8v4.4h-1.4v-4.1c0-0.7-0.3-1-0.9-1
			c-0.6,0-1,0.4-1.2,0.8v4.4h-1.4v-6.2h1.4v0.9c0.3-0.4,0.8-1,1.8-1c0.7,0,1.3,0.4,1.5,1h0c0.3-0.4,0.9-1,1.9-1
			C75.8,41.2,76.3,42.1,76.3,43.4z"/>
		<path class="st3" d="M77.8,44.6v-0.3c0-2.1,1-3,2.8-3s2.8,1,2.8,3v0.3c0,2.1-1,3-2.8,3S77.8,46.6,77.8,44.6z M82,44.6v-0.3
			c0-1.5-0.6-1.9-1.4-1.9c-0.8,0-1.4,0.4-1.4,1.9v0.3c0,1.5,0.6,1.9,1.4,1.9C81.4,46.5,82,46.1,82,44.6z"/>
		<path class="st3" d="M89.1,45.9l0.5,0.8c-0.5,0.4-1.1,0.9-2.2,0.9c-1.8,0-2.7-1.1-2.7-3v-0.3c0-2,1-3,2.7-3c1.2,0,1.8,0.5,2.2,0.9
			l-0.5,0.8c-0.5-0.4-0.9-0.6-1.5-0.6c-1,0-1.5,0.5-1.5,1.9v0.3c0,1.4,0.5,1.9,1.5,1.9C88.3,46.5,88.6,46.2,89.1,45.9z"/>
		<path class="st3" d="M94.1,42.4c-0.8,0-1.4,0.5-1.6,1.2v3.9h-1.4v-6.2h1.4v1.1c0.2-0.5,0.9-1.2,1.8-1.2c0.1,0,0.3,0,0.4,0v1.3
			C94.5,42.4,94.3,42.4,94.1,42.4z"/>
		<path class="st3" d="M100.5,47.5h-1c-0.3,0-0.4-0.2-0.4-0.5v-0.5c-0.4,0.6-1,1.1-1.9,1.1c-1,0-1.8-0.6-1.8-1.8c0-1.4,1-1.8,2.5-2
			l1.3-0.2v-0.2c0-0.8-0.3-1.1-1.2-1.1c-0.8,0-1.4,0.3-1.8,0.5l-0.4-1c0.7-0.4,1.4-0.7,2.4-0.7c1.6,0,2.3,0.7,2.3,2.3V47
			C100.4,47.2,100.4,47.4,100.5,47.5z M99,45.3v-0.7l-1.2,0.1c-0.8,0.1-1.3,0.3-1.3,0.9c0,0.5,0.3,0.8,1,0.8
			C98.5,46.5,98.9,45.9,99,45.3z"/>
		<path class="st3" d="M105.1,46.4v1c-0.4,0.2-0.8,0.2-1,0.2c-1.3,0-1.6-0.8-1.6-2.1v-3.1h-1.1v-1.1h1.1v-1.5l1.4-0.2v1.7h1.4l0,1.1
			h-1.4v3.1C103.8,46.2,104.1,46.5,105.1,46.4z"/>
		<path class="st3" d="M107,38.7h0.4c0.4,0,0.6,0.2,0.6,0.6v0.3c0,0.4-0.2,0.6-0.6,0.6H107c-0.4,0-0.6-0.2-0.6-0.6v-0.3
			C106.5,38.9,106.7,38.7,107,38.7z M107.9,41.3v6.2h-1.4v-6.2H107.9z"/>
		<path class="st3" d="M113.9,45.9l0.5,0.8c-0.5,0.4-1.1,0.9-2.2,0.9c-1.8,0-2.7-1.1-2.7-3v-0.3c0-2,1-3,2.7-3
			c1.2,0,1.8,0.5,2.2,0.9l-0.5,0.8c-0.5-0.4-0.9-0.6-1.5-0.6c-1,0-1.5,0.5-1.5,1.9v0.3c0,1.4,0.5,1.9,1.5,1.9
			C113,46.5,113.4,46.2,113.9,45.9z"/>
		<path class="st3" d="M124.9,45c0,1.5-1.4,2.6-3.1,2.6c-1.4,0-2.6-0.7-3.2-1.9l1-0.7c0.5,0.9,1.4,1.3,2.1,1.3
			c0.7,0,1.6-0.3,1.6-1.2c0-0.8-0.7-1.1-1.8-1.5C120,43,119,42.2,119,41c0-1.4,1.2-2.4,2.8-2.4c1.5,0,2.6,0.9,3,1.7l-1,0.7
			c-0.6-0.8-1.2-1.1-2-1.1c-0.7,0-1.4,0.3-1.4,1.1c0,0.5,0.3,0.9,1.4,1.3C123.4,42.9,124.9,43.4,124.9,45z"/>
		<path class="st3" d="M126,44.6v-0.3c0-2.1,1-3,2.8-3c1.8,0,2.8,1,2.8,3v0.3c0,2.1-1,3-2.8,3C127,47.6,126,46.6,126,44.6z
			 M130.2,44.6v-0.3c0-1.5-0.6-1.9-1.4-1.9c-0.8,0-1.4,0.4-1.4,1.9v0.3c0,1.5,0.6,1.9,1.4,1.9C129.6,46.5,130.2,46.1,130.2,44.6z"/>
		<path class="st3" d="M137.2,45.9l0.5,0.8c-0.5,0.4-1.1,0.9-2.2,0.9c-1.8,0-2.7-1.1-2.7-3v-0.3c0-2,1-3,2.7-3
			c1.2,0,1.8,0.5,2.2,0.9l-0.5,0.8c-0.5-0.4-0.9-0.6-1.5-0.6c-1,0-1.5,0.5-1.5,1.9v0.3c0,1.4,0.5,1.9,1.5,1.9
			C136.4,46.5,136.7,46.2,137.2,45.9z"/>
		<path class="st3" d="M139.8,38.7h0.4c0.4,0,0.6,0.2,0.6,0.6v0.3c0,0.4-0.2,0.6-0.6,0.6h-0.4c-0.4,0-0.6-0.2-0.6-0.6v-0.3
			C139.2,38.9,139.4,38.7,139.8,38.7z M140.7,41.3v6.2h-1.4v-6.2H140.7z"/>
		<path class="st3" d="M147.4,47.5h-1c-0.3,0-0.5-0.2-0.5-0.5v-0.5c-0.4,0.6-1,1.1-1.9,1.1c-1,0-1.8-0.6-1.8-1.8c0-1.4,1-1.8,2.5-2
			l1.3-0.2v-0.2c0-0.8-0.3-1.1-1.2-1.1c-0.8,0-1.4,0.3-1.8,0.5l-0.4-1c0.7-0.4,1.4-0.7,2.4-0.7c1.6,0,2.3,0.7,2.3,2.3V47
			C147.3,47.2,147.3,47.4,147.4,47.5z M145.9,45.3v-0.7l-1.2,0.1c-0.8,0.1-1.3,0.3-1.3,0.9c0,0.5,0.3,0.8,1,0.8
			C145.5,46.5,145.9,45.9,145.9,45.3z"/>
		<path class="st3" d="M149.1,38.4h1.4v9.1h-1.4V38.4z"/>
		<path class="st3" d="M152.8,38.7h0.4c0.4,0,0.6,0.2,0.6,0.6v0.3c0,0.4-0.2,0.6-0.6,0.6h-0.4c-0.4,0-0.6-0.2-0.6-0.6v-0.3
			C152.2,38.9,152.4,38.7,152.8,38.7z M153.6,41.3v6.2h-1.4v-6.2H153.6z"/>
		<path class="st3" d="M160.1,45.8c0,1.2-1.2,1.8-2.5,1.8c-1.4,0-2.3-0.7-2.5-1.8l1.2-0.2c0.2,0.5,0.6,0.9,1.3,0.9
			c0.5,0,1.1-0.2,1.1-0.7c0-0.3-0.2-0.6-1.2-0.9c-1.5-0.5-2.1-1.1-2.1-2c0-1,0.8-1.7,2.2-1.7c1.4,0,2.2,0.8,2.3,1.8l-1.1,0.2
			c-0.2-0.4-0.5-0.9-1.2-0.9c-0.6,0-0.9,0.3-0.9,0.7c0,0.3,0.1,0.6,1,0.8C159.1,44.2,160.1,44.7,160.1,45.8z"/>
		<path class="st3" d="M164.6,46.4v1c-0.4,0.2-0.8,0.2-1,0.2c-1.3,0-1.6-0.8-1.6-2.1v-3.1h-1.1v-1.1h1.1v-1.5l1.4-0.2v1.7h1.4l0,1.1
			h-1.4v3.1C163.3,46.2,163.6,46.5,164.6,46.4z"/>
		<path class="st3" d="M170.6,45.8c0,1.2-1.2,1.8-2.5,1.8c-1.4,0-2.3-0.7-2.5-1.8l1.2-0.2c0.2,0.5,0.6,0.9,1.3,0.9
			c0.5,0,1.1-0.2,1.1-0.7c0-0.3-0.2-0.6-1.2-0.9c-1.5-0.5-2.1-1.1-2.1-2c0-1,0.8-1.7,2.2-1.7c1.4,0,2.2,0.8,2.3,1.8l-1.1,0.2
			c-0.2-0.4-0.5-0.9-1.2-0.9c-0.6,0-0.9,0.3-0.9,0.7c0,0.3,0.1,0.6,0.9,0.8C169.6,44.2,170.6,44.7,170.6,45.8z"/>
		<path class="st3" d="M175,44.6v-0.3c0-2.1,1-3,2.8-3c1.8,0,2.8,1,2.8,3v0.3c0,2.1-1,3-2.8,3C176,47.6,175,46.6,175,44.6z
			 M179.2,44.6v-0.3c0-1.5-0.6-1.9-1.4-1.9s-1.4,0.4-1.4,1.9v0.3c0,1.5,0.6,1.9,1.4,1.9S179.2,46.1,179.2,44.6z"/>
		<path class="st3" d="M183.9,41.3h1.5v1.1h-1.5v5.1h-1.4v-5.1h-1v-1.1h1v-0.8c0-1.4,0.6-2.1,2.1-2.1h0.8l0.1,1.2h-0.9
			c-0.5,0-0.7,0.3-0.7,0.9V41.3z"/>
		<path class="st3" d="M194.9,45.7h-3.3l-0.5,1.8h-1.5l2.6-8.7h2l2.6,8.7h-1.5L194.9,45.7z M194.5,44.4l-1.2-4.2h-0.2l-1.2,4.2
			H194.5z"/>
		<path class="st3" d="M206.6,43.4v4.1h-1.4v-4.1c0-0.7-0.3-1-0.9-1c-0.6,0-1,0.4-1.2,0.8v4.4h-1.4v-4.1c0-0.7-0.3-1-0.9-1
			c-0.6,0-1,0.4-1.2,0.8v4.4h-1.4v-6.2h1.4v0.9c0.3-0.4,0.8-1,1.8-1c0.8,0,1.3,0.4,1.5,1h0c0.3-0.4,0.9-1,1.9-1
			C206.1,41.2,206.6,42.1,206.6,43.4z"/>
		<path class="st3" d="M208.1,44.6v-0.5c0-2,1-2.9,2.7-2.9c1.7,0,2.6,1,2.6,2.8c0,0.7-0.3,0.9-1,0.9h-2.8c0,1.1,0.6,1.6,1.7,1.6
			c0.6,0,1.1-0.1,1.6-0.5l0.5,0.8c-0.4,0.5-1.2,0.9-2.3,0.9C209.2,47.6,208.1,46.5,208.1,44.6z M212.1,43.9c0-1.1-0.5-1.6-1.3-1.6
			c-0.8,0-1.3,0.5-1.3,1.6H212.1z"/>
		<path class="st3" d="M217.9,42.4c-0.8,0-1.4,0.5-1.7,1.2v3.9h-1.4v-6.2h1.4v1.1c0.2-0.5,0.9-1.2,1.8-1.2c0.1,0,0.3,0,0.4,0v1.3
			C218.3,42.4,218.1,42.4,217.9,42.4z"/>
		<path class="st3" d="M220.3,38.7h0.4c0.4,0,0.6,0.2,0.6,0.6v0.3c0,0.4-0.2,0.6-0.6,0.6h-0.4c-0.4,0-0.6-0.2-0.6-0.6v-0.3
			C219.7,38.9,219.9,38.7,220.3,38.7z M221.2,41.3v6.2h-1.4v-6.2H221.2z"/>
		<path class="st3" d="M227.2,45.9l0.5,0.8c-0.5,0.4-1.1,0.9-2.2,0.9c-1.8,0-2.8-1.1-2.8-3v-0.3c0-2,1-3,2.8-3
			c1.2,0,1.8,0.5,2.2,0.9l-0.5,0.8c-0.5-0.4-0.9-0.6-1.5-0.6c-1,0-1.5,0.5-1.5,1.9v0.3c0,1.4,0.5,1.9,1.5,1.9
			C226.3,46.5,226.6,46.2,227.2,45.9z"/>
		<path class="st3" d="M234.1,47.5h-1c-0.3,0-0.4-0.2-0.4-0.5v-0.5c-0.4,0.6-1,1.1-2,1.1c-1,0-1.8-0.6-1.8-1.8c0-1.4,1-1.8,2.5-2
			l1.3-0.2v-0.2c0-0.8-0.3-1.1-1.2-1.1c-0.8,0-1.4,0.3-1.8,0.5l-0.4-1c0.7-0.4,1.4-0.7,2.4-0.7c1.6,0,2.3,0.7,2.3,2.3V47
			C234,47.2,234,47.4,234.1,47.5z M232.6,45.3v-0.7l-1.2,0.1c-0.8,0.1-1.3,0.3-1.3,0.9c0,0.5,0.3,0.8,1,0.8
			C232.1,46.5,232.5,45.9,232.6,45.3z"/>
	</g>
	<g>
		<g>
			<g>
				<defs>
					<rect id="SVGID_1_" width="43.8" height="65"/>
				</defs>
				<clipPath id="SVGID_2_">
					<use xlink:href="#SVGID_1_"  style="overflow:visible;"/>
				</clipPath>
				<g class="st4">
					<g>
						<defs>
							<rect id="SVGID_3_" width="43.8" height="65"/>
						</defs>
						<clipPath id="SVGID_4_">
							<use xlink:href="#SVGID_3_"  style="overflow:visible;"/>
						</clipPath>
						<path class="st5" d="M39.8,24.8c-0.1,0-0.3-0.1-0.4-0.2L31.8,16c-0.2-0.2-0.2-0.5,0-0.7s0.5-0.2,0.7,0l7.6,8.6
							c0.2,0.2,0.2,0.5,0,0.7C40,24.7,39.9,24.8,39.8,24.8"/>
					</g>
					<g>
						<defs>
							<rect id="SVGID_5_" width="43.8" height="65"/>
						</defs>
						<clipPath id="SVGID_6_">
							<use xlink:href="#SVGID_5_"  style="overflow:visible;"/>
						</clipPath>
						<path class="st6" d="M32.2,24.2c-0.1,0-0.3-0.1-0.4-0.2c-0.2-0.2-0.2-0.5,0-0.7l7.6-7.3c0.2-0.2,0.5-0.2,0.7,0s0.2,0.5,0,0.7
							L32.5,24C32.5,24.2,32.3,24.2,32.2,24.2"/>
					</g>
					<g>
						<defs>
							<rect id="SVGID_7_" width="43.8" height="65"/>
						</defs>
						<clipPath id="SVGID_8_">
							<use xlink:href="#SVGID_7_"  style="overflow:visible;"/>
						</clipPath>
						<path class="st7" d="M39.8,34.3c-0.1,0-0.3-0.1-0.4-0.2l-7.6-8.3c-0.2-0.2-0.2-0.5,0-0.7s0.5-0.2,0.7,0l7.6,8.3
							c0.2,0.2,0.2,0.5,0,0.7C40,34.2,39.9,34.3,39.8,34.3"/>
					</g>
					<g>
						<defs>
							<rect id="SVGID_9_" width="43.8" height="65"/>
						</defs>
						<clipPath id="SVGID_10_">
							<use xlink:href="#SVGID_9_"  style="overflow:visible;"/>
						</clipPath>
						<path class="st8" d="M32.2,34.1c-0.1,0-0.3-0.1-0.4-0.2c-0.2-0.2-0.2-0.5,0-0.7l7.6-7.6c0.2-0.2,0.5-0.2,0.7,0s0.2,0.5,0,0.7
							l-7.6,7.6C32.5,34,32.3,34.1,32.2,34.1"/>
					</g>
					<g>
						<defs>
							<rect id="SVGID_11_" width="43.8" height="65"/>
						</defs>
						<clipPath id="SVGID_12_">
							<use xlink:href="#SVGID_11_"  style="overflow:visible;"/>
						</clipPath>
						<path class="st9" d="M32.2,15.6l7.6,0.8v7.8l-7.6-0.5V15.6 M32.2,14.6c-0.3,0-0.5,0.1-0.7,0.3s-0.3,0.5-0.3,0.8v8.1
							c0,0.5,0.4,1,1,1l7.6,0.5c0,0,0,0,0.1,0c0.3,0,0.5-0.1,0.7-0.3c0.2-0.2,0.3-0.5,0.3-0.8v-7.8c0-0.5-0.4-1-0.9-1l-7.6-0.8
							C32.3,14.6,32.2,14.6,32.2,14.6"/>
					</g>
					<g>
						<defs>
							<rect id="SVGID_13_" width="43.8" height="65"/>
						</defs>
						<clipPath id="SVGID_14_">
							<use xlink:href="#SVGID_13_"  style="overflow:visible;"/>
						</clipPath>
						<path class="st10" d="M32.2,25.5l7.7,0.5v7.8l-7.7-0.2V25.5 M32.2,24.5c-0.3,0-0.5,0.1-0.7,0.3c-0.2,0.2-0.3,0.5-0.3,0.8v8.1
							c0,0.6,0.4,1,1,1l7.7,0.2l0,0c0.3,0,0.5-0.1,0.7-0.3s0.3-0.5,0.3-0.7V26c0-0.5-0.4-1-1-1L32.2,24.5L32.2,24.5"/>
					</g>
					<g>
						<defs>
							<rect id="SVGID_15_" width="43.8" height="65"/>
						</defs>
						<clipPath id="SVGID_16_">
							<use xlink:href="#SVGID_15_"  style="overflow:visible;"/>
						</clipPath>
						<path class="st11" d="M33.3,12.7c-0.3,0-0.5-0.2-0.5-0.5V9.7c0-0.3,0.2-0.5,0.5-0.5s0.5,0.2,0.5,0.5v2.5
							C33.8,12.5,33.6,12.7,33.3,12.7"/>
					</g>
					<g>
						<defs>
							<rect id="SVGID_17_" width="43.8" height="65"/>
						</defs>
						<clipPath id="SVGID_18_">
							<use xlink:href="#SVGID_17_"  style="overflow:visible;"/>
						</clipPath>
						<path class="st12" d="M35.1,12.9c-0.3,0-0.5-0.2-0.5-0.5V10c0-0.3,0.2-0.5,0.5-0.5s0.5,0.2,0.5,0.5v2.5
							C35.6,12.7,35.4,12.9,35.1,12.9"/>
					</g>
					<g>
						<defs>
							<rect id="SVGID_19_" width="43.8" height="65"/>
						</defs>
						<clipPath id="SVGID_20_">
							<use xlink:href="#SVGID_19_"  style="overflow:visible;"/>
						</clipPath>
						<path class="st13" d="M36.9,13.2c-0.3,0-0.5-0.2-0.5-0.5v-2.4c0-0.3,0.2-0.5,0.5-0.5s0.5,0.2,0.5,0.5v2.4
							C37.4,12.9,37.2,13.2,36.9,13.2"/>
					</g>
					<g>
						<defs>
							<rect id="SVGID_21_" width="43.8" height="65"/>
						</defs>
						<clipPath id="SVGID_22_">
							<use xlink:href="#SVGID_21_"  style="overflow:visible;"/>
						</clipPath>
						<path class="st14" d="M38.6,13.4c-0.3,0-0.5-0.2-0.5-0.5v-2.4c0-0.3,0.2-0.5,0.5-0.5s0.5,0.2,0.5,0.5v2.4
							C39.1,13.1,38.9,13.4,38.6,13.4"/>
					</g>
					<g>
						<defs>
							<rect id="SVGID_23_" width="43.8" height="65"/>
						</defs>
						<clipPath id="SVGID_24_">
							<use xlink:href="#SVGID_23_"  style="overflow:visible;"/>
						</clipPath>
						<path class="st15" d="M29.1,2l1.6,0.3v31.2h-1.6V2 M29.1,1c-0.2,0-0.5,0.1-0.7,0.2C28.2,1.4,28,1.7,28,2v31.5c0,0.6,0.4,1,1,1
							h1.6l0,0c0.3,0,0.5-0.1,0.7-0.3s0.3-0.5,0.3-0.7V2.3c0-0.5-0.4-0.9-0.9-1L29.3,1C29.3,1,29.2,1,29.1,1"/>
					</g>
					<g>
						<defs>
							<rect id="SVGID_25_" width="43.8" height="65"/>
						</defs>
						<clipPath id="SVGID_26_">
							<use xlink:href="#SVGID_25_"  style="overflow:visible;"/>
						</clipPath>
						<path class="st16" d="M41.1,4l1.5,0.2v29.6h-1.5V4 M41.1,3c-0.2,0-0.5,0.1-0.7,0.2C40.2,3.4,40,3.7,40,4v29.8c0,0.6,0.4,1,1,1
							h1.5l0,0c0.3,0,0.5-0.1,0.7-0.3s0.3-0.5,0.3-0.7V4.2c0-0.5-0.4-0.9-0.9-1L41.2,3H41.1"/>
					</g>
					<g>
						<defs>
							<rect id="SVGID_27_" width="43.8" height="65"/>
						</defs>
						<clipPath id="SVGID_28_">
							<use xlink:href="#SVGID_27_"  style="overflow:visible;"/>
						</clipPath>
						<path class="st17" d="M30,1.6c-0.3,0-0.5-0.2-0.5-0.5V0.5C29.4,0.2,29.7,0,30,0s0.5,0.2,0.5,0.5v0.6C30.5,1.4,30.2,1.6,30,1.6
							"/>
					</g>
					<g>
						<defs>
							<rect id="SVGID_29_" width="43.8" height="65"/>
						</defs>
						<clipPath id="SVGID_30_">
							<use xlink:href="#SVGID_29_"  style="overflow:visible;"/>
						</clipPath>
						<path class="st18" d="M41.8,3.7c-0.3,0-0.5-0.2-0.5-0.5V2.6c0-0.3,0.2-0.5,0.5-0.5s0.5,0.2,0.5,0.5v0.6
							C42.3,3.4,42.1,3.7,41.8,3.7"/>
					</g>
					<g>
						<defs>
							<rect id="SVGID_31_" width="43.8" height="65"/>
						</defs>
						<clipPath id="SVGID_32_">
							<use xlink:href="#SVGID_31_"  style="overflow:visible;"/>
						</clipPath>
						<path class="st19" d="M31.8,8.1L40,9.3v5.3l-8.2-0.9V8.1z M30.8,7v7.7l10.3,1.1V8.4L30.8,7z"/>
					</g>
					<g>
						<defs>
							<rect id="SVGID_33_" width="43.8" height="65"/>
						</defs>
						<clipPath id="SVGID_34_">
							<use xlink:href="#SVGID_33_"  style="overflow:visible;"/>
						</clipPath>
						<path class="st20" d="M14.4,27.5c-0.1,0-0.3-0.1-0.4-0.2l-6.9-6.9c-0.2-0.2-0.2-0.5,0-0.7s0.5-0.2,0.7,0l6.9,6.9
							c0.2,0.2,0.2,0.5,0,0.7C14.7,27.5,14.6,27.5,14.4,27.5"/>
					</g>
					<g>
						<defs>
							<rect id="SVGID_35_" width="43.8" height="65"/>
						</defs>
						<clipPath id="SVGID_36_">
							<use xlink:href="#SVGID_35_"  style="overflow:visible;"/>
						</clipPath>
						<path class="st21" d="M7.5,27.2c-0.1,0-0.3-0.1-0.4-0.2c-0.2-0.2-0.2-0.5,0-0.7l6.9-6c0.2-0.2,0.5-0.2,0.7,0s0.2,0.5,0,0.7
							l-6.9,6C7.8,27.1,7.7,27.2,7.5,27.2"/>
					</g>
					<g>
						<defs>
							<rect id="SVGID_37_" width="43.8" height="65"/>
						</defs>
						<clipPath id="SVGID_38_">
							<use xlink:href="#SVGID_37_"  style="overflow:visible;"/>
						</clipPath>
						<path class="st22" d="M14.4,35.3c-0.1,0-0.3,0-0.4-0.1l-6.9-6.7c-0.2-0.2-0.2-0.5,0-0.7s0.5-0.2,0.7,0l6.9,6.7
							c0.2,0.2,0.2,0.5,0,0.7C14.7,35.3,14.6,35.3,14.4,35.3"/>
					</g>
					<g>
						<defs>
							<rect id="SVGID_39_" width="43.8" height="65"/>
						</defs>
						<clipPath id="SVGID_40_">
							<use xlink:href="#SVGID_39_"  style="overflow:visible;"/>
						</clipPath>
						<path class="st23" d="M7.5,35.2c-0.1,0-0.3-0.1-0.4-0.2c-0.2-0.2-0.2-0.5,0-0.7l6.9-6.2c0.2-0.2,0.5-0.2,0.7,0s0.2,0.5,0,0.7
							L7.8,35C7.8,35.1,7.7,35.2,7.5,35.2"/>
					</g>
					<g>
						<defs>
							<rect id="SVGID_41_" width="43.8" height="65"/>
						</defs>
						<clipPath id="SVGID_42_">
							<use xlink:href="#SVGID_41_"  style="overflow:visible;"/>
						</clipPath>
						<path class="st24" d="M7.5,20.1l6.9,0.5V27l-6.9-0.4L7.5,20.1 M7.5,19c-0.3,0-0.5,0.1-0.7,0.3c-0.2,0.2-0.3,0.5-0.3,0.8v6.6
							c0,0.5,0.4,1,1,1l6.9,0.4c0,0,0,0,0.1,0c0.3,0,0.5-0.1,0.7-0.3c0.2-0.2,0.3-0.5,0.3-0.7v-6.4c0-0.5-0.4-1-1-1L7.5,19
							C7.6,19,7.6,19,7.5,19"/>
					</g>
					<g>
						<defs>
							<rect id="SVGID_43_" width="43.8" height="65"/>
						</defs>
						<clipPath id="SVGID_44_">
							<use xlink:href="#SVGID_43_"  style="overflow:visible;"/>
						</clipPath>
						<path class="st25" d="M7.5,28.1l7,0.3v6.4l-7-0.1V28.1 M7.5,27.1c-0.3,0-0.5,0.1-0.7,0.3c-0.2,0.2-0.3,0.5-0.3,0.7v6.6
							c0,0.6,0.4,1,1,1l7,0.1l0,0c0.3,0,0.5-0.1,0.7-0.3s0.3-0.5,0.3-0.7v-6.4c0-0.6-0.4-1-1-1L7.5,27.1C7.6,27.1,7.6,27.1,7.5,27.1
							"/>
					</g>
					<g>
						<defs>
							<rect id="SVGID_45_" width="43.8" height="65"/>
						</defs>
						<clipPath id="SVGID_46_">
							<use xlink:href="#SVGID_45_"  style="overflow:visible;"/>
						</clipPath>
						<path class="st26" d="M8.6,17.8c-0.3,0-0.5-0.2-0.5-0.5v-2c0-0.3,0.2-0.5,0.5-0.5s0.5,0.2,0.5,0.5v2
							C9.1,17.5,8.8,17.8,8.6,17.8"/>
					</g>
					<g>
						<defs>
							<rect id="SVGID_47_" width="43.8" height="65"/>
						</defs>
						<clipPath id="SVGID_48_">
							<use xlink:href="#SVGID_47_"  style="overflow:visible;"/>
						</clipPath>
						<path class="st27" d="M10.2,17.9c-0.3,0-0.5-0.2-0.5-0.5v-2c0-0.3,0.2-0.5,0.5-0.5s0.5,0.2,0.5,0.5v2
							C10.7,17.7,10.5,17.9,10.2,17.9"/>
					</g>
					<g>
						<defs>
							<rect id="SVGID_49_" width="43.8" height="65"/>
						</defs>
						<clipPath id="SVGID_50_">
							<use xlink:href="#SVGID_49_"  style="overflow:visible;"/>
						</clipPath>
						<path class="st28" d="M11.8,18.1c-0.3,0-0.5-0.2-0.5-0.5v-2c0-0.3,0.2-0.5,0.5-0.5s0.5,0.2,0.5,0.5v2
							C12.3,17.8,12.1,18.1,11.8,18.1"/>
					</g>
					<g>
						<defs>
							<rect id="SVGID_51_" width="43.8" height="65"/>
						</defs>
						<clipPath id="SVGID_52_">
							<use xlink:href="#SVGID_51_"  style="overflow:visible;"/>
						</clipPath>
						<path class="st29" d="M13.4,18.2c-0.3,0-0.5-0.2-0.5-0.5v-2c0-0.3,0.2-0.5,0.5-0.5s0.5,0.2,0.5,0.5v2
							C13.9,18,13.7,18.2,13.4,18.2"/>
					</g>
					<g>
						<defs>
							<rect id="SVGID_53_" width="43.8" height="65"/>
						</defs>
						<clipPath id="SVGID_54_">
							<use xlink:href="#SVGID_53_"  style="overflow:visible;"/>
						</clipPath>
						<path class="st30" d="M4.8,9.1l1.5,0.2v25.4H4.8V9.1 M4.8,8C4.5,8,4.3,8.1,4.1,8.3C3.9,8.5,3.8,8.8,3.8,9.1v25.6
							c0,0.6,0.4,1,1,1h1.5l0,0c0.3,0,0.5-0.1,0.7-0.3s0.3-0.5,0.3-0.7V9.2c0-0.5-0.4-1-0.9-1L4.8,8L4.8,8"/>
					</g>
					<g>
						<defs>
							<rect id="SVGID_55_" width="43.8" height="65"/>
						</defs>
						<clipPath id="SVGID_56_">
							<use xlink:href="#SVGID_55_"  style="overflow:visible;"/>
						</clipPath>
						<path class="st31" d="M15.6,10.4l1.3,0.2v24.3h-1.3L15.6,10.4 M15.6,9.3c-0.3,0-0.5,0.1-0.7,0.3s-0.3,0.5-0.3,0.8v24.5
							c0,0.6,0.4,1,1,1h1.3l0,0c0.3,0,0.5-0.1,0.7-0.3s0.3-0.5,0.3-0.7V10.5c0-0.5-0.4-1-0.9-1L15.6,9.3C15.7,9.3,15.7,9.3,15.6,9.3
							"/>
					</g>
					<g>
						<defs>
							<rect id="SVGID_57_" width="43.8" height="65"/>
						</defs>
						<clipPath id="SVGID_58_">
							<use xlink:href="#SVGID_57_"  style="overflow:visible;"/>
						</clipPath>
						<path class="st32" d="M5.5,8.8C5.2,8.8,5,8.6,5,8.3V7.8c0-0.3,0.2-0.5,0.5-0.5S6,7.5,6,7.8v0.5C6,8.6,5.8,8.8,5.5,8.8"/>
					</g>
					<g>
						<defs>
							<rect id="SVGID_59_" width="43.8" height="65"/>
						</defs>
						<clipPath id="SVGID_60_">
							<use xlink:href="#SVGID_59_"  style="overflow:visible;"/>
						</clipPath>
						<path class="st33" d="M16.3,10.2c-0.3,0-0.5-0.2-0.5-0.5V9.2c0-0.3,0.2-0.5,0.5-0.5c0.3,0,0.5,0.2,0.5,0.5v0.5
							C16.8,9.9,16.6,10.2,16.3,10.2"/>
					</g>
					<g>
						<defs>
							<rect id="SVGID_61_" width="43.8" height="65"/>
						</defs>
						<clipPath id="SVGID_62_">
							<use xlink:href="#SVGID_61_"  style="overflow:visible;"/>
						</clipPath>
						<path class="st34" d="M7.3,14.2l7.3,0.8v4l-7.3-0.6V14.2z M6.2,13v6.2l9.4,0.8v-6L6.2,13z"/>
					</g>
					<g>
						<defs>
							<rect id="SVGID_63_" width="43.8" height="65"/>
						</defs>
						<clipPath id="SVGID_64_">
							<use xlink:href="#SVGID_63_"  style="overflow:visible;"/>
						</clipPath>
						<path class="st35" d="M42.5,35.8C42.5,35.7,42.5,35.7,42.5,35.8c0-0.1,0-0.1,0-0.2c0,0,0,0,0-0.1c-0.1-0.2-2.9-3.7-8.2-5
							c1-0.9,1.6-2.1,1.6-3.4c0-2-1.3-3.3-1.9-3.8c0.2-0.4,0.3-0.9,0.3-1.4c0-1.4-0.6-2.8-1.9-3.9c-0.9-0.8-2-1.1-3-1.3l0,0
							c-0.1-0.1-1.7-3.2-5.6-3.2c-2.9,0-4.4,1.4-5.1,2.1c-0.4-0.3-0.9-0.5-1.4-0.6c-1.4-0.2-2.9,0.4-3.9,1.7c-1.6,2-1.5,4.2-1.4,5.1
							c-1.4,0.9-2.8,2.5-2.8,4.9c0,1.6,0.5,3.1,1.5,4.5c-3.6,1.5-6,4.8-6.1,5v0.1l0,0c0,0.1,0,0.1,0,0.2l0,0l0,0c0,0.1,0,0.1,0,0.2
							l0,0l0,0c0.1,0.2,1.3,3,4.6,4.6c-2,0.6-4.3,1.1-7.3,1.1c-0.3,0-0.5,0.2-0.5,0.5s0.2,0.5,0.5,0.5c3.9,0,6.6-0.8,9-1.6
							c1.7-0.5,3.3-1,4.8-1c3.2,0,4.9,1.7,4.9,1.7l0.7,0.7c0.3-0.2,0.6-0.5,0.9-0.7c0.2-0.1,0.3-0.3,0.5-0.4
							c0.1-0.1,0.3-0.2,0.4-0.3c0.2-0.2,0.4-0.3,0.6-0.4c0.1-0.1,0.1-0.1,0.2-0.2c0.2-0.1,0.4-0.3,0.6-0.4c0.3-0.2,0.7-0.4,1.1-0.5
							c0.4-0.2,0.9-0.3,1.5-0.4c0.3-0.1,0.7-0.1,1-0.2c0.7-0.1,1.4-0.2,2.2-0.2c0.3,0,0.6,0,0.9,0c0.1,0,0.2,0,0.3,0
							c1.4,0.1,2.7,0.5,3.7,1c0.4,0.2,0.8,0.4,1.1,0.6c0.1,0,0.1,0,0.2-0.1l0,0l0,0c3.8-1.9,6-4.9,6.1-5L42.5,35.8
							C42.6,35.9,42.6,35.9,42.5,35.8C42.5,36,42.5,35.9,42.5,35.8L42.5,35.8L42.5,35.8"/>
					</g>
					<g>
						<defs>
							<rect id="SVGID_65_" width="43.8" height="65"/>
						</defs>
						<clipPath id="SVGID_66_">
							<use xlink:href="#SVGID_65_"  style="overflow:visible;"/>
						</clipPath>
						<path class="st36" d="M21.1,45.1l-1.5-1.5c-0.1-0.1-1.4-1.3-4-1.3c-1.4,0-2.8,0.4-4.5,0.9c-2.5,0.8-5.3,1.6-9.4,1.6
							c-1,0-1.8-0.8-1.8-1.8s0.8-1.8,1.8-1.8c1.6,0,3-0.2,4.3-0.4c-1.9-1.6-2.6-3.4-2.7-3.6v-0.1c0-0.1-0.1-0.2-0.1-0.3v-0.1v-0.4
							v-0.1c0-0.1,0.1-0.3,0.1-0.4l0.1-0.1c0-0.1,0.1-0.1,0.1-0.2c0.2-0.3,2.2-3.1,5.3-4.8c-0.6-1.2-1-2.6-1-4
							c0-2.2,0.9-4.1,2.8-5.5c0-1.3,0.2-3.4,1.8-5.3c1.4-1.7,3.3-2.5,5.1-2.2c0.3,0.1,0.7,0.2,1,0.3c1-0.9,2.7-1.8,5.3-1.8
							c3.3,0,5.5,1.9,6.4,3.3c1.2,0.3,2.2,0.8,3,1.5c1.5,1.3,2.3,3.1,2.3,4.8c0,0.3-0.1,0.7-0.1,1c0.8,0.8,1.7,2.2,1.7,4.2
							c0,1-0.3,1.9-0.7,2.7c4.4,1.6,6.8,4.5,7.1,4.9c0.1,0.1,0.1,0.2,0.1,0.2c0,0.1,0.1,0.1,0.1,0.2c0,0.1,0.1,0.2,0.1,0.3v0.1v0.4
							l0,0c0,0.1,0,0.3-0.1,0.4l-0.1,0.2c0,0-0.1,0.1-0.1,0.3C43.3,37,41,40.2,37,42.3l-0.2,0.1h-0.1L36,42.7l-0.6-0.4
							c-0.3-0.2-0.7-0.4-1-0.6c-1.1-0.5-2.2-0.8-3.2-0.8h-0.1c-0.3,0-0.7,0-1,0c-0.7,0-1.4,0.1-2.1,0.2c-0.3,0.1-0.6,0.1-0.9,0.2
							c-0.5,0.1-0.9,0.2-1.3,0.4c-0.3,0.1-0.6,0.3-0.9,0.4c-0.2,0.1-0.3,0.2-0.4,0.3s-0.1,0.1-0.2,0.2c-0.2,0.1-0.4,0.3-0.6,0.5
							l-0.4,0.3c-0.2,0.1-0.3,0.2-0.5,0.4c-0.3,0.2-0.6,0.4-0.9,0.7L21.1,45.1z M15.6,39.9c3.3,0,5.2,1.5,5.7,2c0,0,0,0,0.1,0
							c0.2-0.1,0.4-0.3,0.5-0.4l0.4-0.3c0.2-0.2,0.4-0.3,0.6-0.4c0.1,0,0.1-0.1,0.2-0.1c0.2-0.2,0.5-0.3,0.7-0.5
							c0.4-0.2,0.8-0.4,1.3-0.6c0.5-0.2,1-0.4,1.6-0.5c0.4-0.1,0.7-0.2,1.1-0.2c0.7-0.1,1.5-0.2,2.4-0.2c0.4,0,0.8,0,1.2,0h0.1
							c1.4,0.1,2.9,0.4,4.2,1.1c0.2,0.1,0.4,0.2,0.6,0.3c2.5-1.3,4.2-3.2,4.9-4c-0.9-0.9-3.3-3.2-7.1-4.1l-2.3-0.6l1.8-1.6
							c0.7-0.6,1.1-1.5,1.1-2.5c0-1.5-1-2.5-1.4-2.9l-0.7-0.6l0.3-0.8c0.1-0.3,0.2-0.6,0.2-1c0-1-0.5-2.1-1.4-2.9
							c-0.6-0.5-1.4-0.8-2.4-1L28.6,18l-0.3-0.6C28.1,17,26.7,15,23.8,15c-2.3,0-3.6,1.1-4.1,1.7l-0.8,0.9L18,16.9
							c-0.3-0.2-0.5-0.3-0.8-0.4c-0.9-0.2-2,0.3-2.8,1.3c-1.3,1.6-1.3,3.5-1.2,4.2l0.1,0.8L12.6,23c-1.5,1-2.2,2.2-2.2,3.9
							c0,1.3,0.4,2.6,1.3,3.8l0.9,1.3l-1.4,0.6c-2.7,1.1-4.6,3.4-5.3,4.2c0.4,0.7,1.5,2.5,3.8,3.6l0.9,0.5
							C12.3,40.3,13.9,39.9,15.6,39.9 M5.5,37.1L5.5,37.1L5.5,37.1 M5.5,37.1L5.5,37.1L5.5,37.1 M41.4,36.2L41.4,36.2L41.4,36.2"/>
					</g>
					<g>
						<defs>
							<rect id="SVGID_67_" width="43.8" height="65"/>
						</defs>
						<clipPath id="SVGID_68_">
							<use xlink:href="#SVGID_67_"  style="overflow:visible;"/>
						</clipPath>
						<path class="st37" d="M42.9,53c-0.7,0-6.6,0.2-7.8,0.5c-0.9,0.2-2.4-0.2-3-0.3c-0.3-0.1-0.6,0.1-0.6,0.3
							c-0.1,0.3,0.1,0.6,0.3,0.6c0.1,0,1.4,0.4,2.6,0.4c0.3,0,0.6,0,0.9-0.1c0.9-0.2,5.8-0.4,7.5-0.4c0.3,0,0.5-0.2,0.5-0.5
							C43.4,53.2,43.2,53,42.9,53"/>
					</g>
					<g>
						<defs>
							<rect id="SVGID_69_" width="43.8" height="65"/>
						</defs>
						<clipPath id="SVGID_70_">
							<use xlink:href="#SVGID_69_"  style="overflow:visible;"/>
						</clipPath>
						<line class="st38" x1="42" y1="35.9" x2="23.1" y2="36.7"/>
					</g>
					<g>
						<defs>
							<rect id="SVGID_71_" width="43.8" height="65"/>
						</defs>
						<clipPath id="SVGID_72_">
							<use xlink:href="#SVGID_71_"  style="overflow:visible;"/>
						</clipPath>
						<line class="st39" x1="26.2" y1="36.4" x2="28.9" y2="30.8"/>
					</g>
					<g>
						<defs>
							<rect id="SVGID_73_" width="43.8" height="65"/>
						</defs>
						<clipPath id="SVGID_74_">
							<use xlink:href="#SVGID_73_"  style="overflow:visible;"/>
						</clipPath>
						<line class="st40" x1="28.9" y1="36.4" x2="33.3" y2="30.9"/>
					</g>
					<g>
						<defs>
							<rect id="SVGID_75_" width="43.8" height="65"/>
						</defs>
						<clipPath id="SVGID_76_">
							<use xlink:href="#SVGID_75_"  style="overflow:visible;"/>
						</clipPath>
						<line class="st41" x1="33.3" y1="36.2" x2="36.4" y2="31.8"/>
					</g>
					<g>
						<defs>
							<rect id="SVGID_77_" width="43.8" height="65"/>
						</defs>
						<clipPath id="SVGID_78_">
							<use xlink:href="#SVGID_77_"  style="overflow:visible;"/>
						</clipPath>
						<line class="st42" x1="36.8" y1="36.1" x2="38.6" y2="33"/>
					</g>
					<g>
						<defs>
							<rect id="SVGID_79_" width="43.8" height="65"/>
						</defs>
						<clipPath id="SVGID_80_">
							<use xlink:href="#SVGID_79_"  style="overflow:visible;"/>
						</clipPath>
						<line class="st43" x1="36.8" y1="36.1" x2="39" y2="38.9"/>
					</g>
					<g>
						<defs>
							<rect id="SVGID_81_" width="43.8" height="65"/>
						</defs>
						<clipPath id="SVGID_82_">
							<use xlink:href="#SVGID_81_"  style="overflow:visible;"/>
						</clipPath>
						<line class="st44" x1="33.3" y1="36.2" x2="36.1" y2="40.8"/>
					</g>
					<g>
						<defs>
							<rect id="SVGID_83_" width="43.8" height="65"/>
						</defs>
						<clipPath id="SVGID_84_">
							<use xlink:href="#SVGID_83_"  style="overflow:visible;"/>
						</clipPath>
						<line class="st45" x1="28.9" y1="36.4" x2="30.9" y2="40"/>
					</g>
					<g>
						<defs>
							<rect id="SVGID_85_" width="43.8" height="65"/>
						</defs>
						<clipPath id="SVGID_86_">
							<use xlink:href="#SVGID_85_"  style="overflow:visible;"/>
						</clipPath>
						<line class="st46" x1="26.2" y1="36.4" x2="27.5" y2="40.5"/>
					</g>
					<g>
						<defs>
							<rect id="SVGID_87_" width="43.8" height="65"/>
						</defs>
						<clipPath id="SVGID_88_">
							<use xlink:href="#SVGID_87_"  style="overflow:visible;"/>
						</clipPath>
						<line class="st47" x1="4.9" y1="36.7" x2="21.5" y2="36.7"/>
					</g>
					<g>
						<defs>
							<rect id="SVGID_89_" width="43.8" height="65"/>
						</defs>
						<clipPath id="SVGID_90_">
							<use xlink:href="#SVGID_89_"  style="overflow:visible;"/>
						</clipPath>
						<line class="st48" x1="17.8" y1="36.7" x2="15.8" y2="31.3"/>
					</g>
					<g>
						<defs>
							<rect id="SVGID_91_" width="43.8" height="65"/>
						</defs>
						<clipPath id="SVGID_92_">
							<use xlink:href="#SVGID_91_"  style="overflow:visible;"/>
						</clipPath>
						<line class="st49" x1="14.4" y1="36.7" x2="13.2" y2="31.3"/>
					</g>
					<g>
						<defs>
							<rect id="SVGID_93_" width="43.8" height="65"/>
						</defs>
						<clipPath id="SVGID_94_">
							<use xlink:href="#SVGID_93_"  style="overflow:visible;"/>
						</clipPath>
						<line class="st50" x1="11.1" y1="36.7" x2="8.4" y2="33.2"/>
					</g>
					<g>
						<defs>
							<rect id="SVGID_95_" width="43.8" height="65"/>
						</defs>
						<clipPath id="SVGID_96_">
							<use xlink:href="#SVGID_95_"  style="overflow:visible;"/>
						</clipPath>
						<line class="st51" x1="11.1" y1="36.7" x2="8.4" y2="40.6"/>
					</g>
					<g>
						<defs>
							<rect id="SVGID_97_" width="43.8" height="65"/>
						</defs>
						<clipPath id="SVGID_98_">
							<use xlink:href="#SVGID_97_"  style="overflow:visible;"/>
						</clipPath>
						<line class="st52" x1="14.4" y1="36.7" x2="11.4" y2="41.2"/>
					</g>
					<g>
						<defs>
							<rect id="SVGID_99_" width="43.8" height="65"/>
						</defs>
						<clipPath id="SVGID_100_">
							<use xlink:href="#SVGID_99_"  style="overflow:visible;"/>
						</clipPath>
						<line class="st53" x1="17.8" y1="36.7" x2="15.6" y2="40.6"/>
					</g>
					<g>
						<defs>
							<rect id="SVGID_101_" width="43.8" height="65"/>
						</defs>
						<clipPath id="SVGID_102_">
							<use xlink:href="#SVGID_101_"  style="overflow:visible;"/>
						</clipPath>
						<line class="st54" x1="27.1" y1="31.2" x2="27.4" y2="31.3"/>
					</g>
					<g>
						<defs>
							<rect id="SVGID_103_" width="43.8" height="65"/>
						</defs>
						<clipPath id="SVGID_104_">
							<use xlink:href="#SVGID_103_"  style="overflow:visible;"/>
						</clipPath>
						<path class="st55" d="M42.5,36c0-0.1,0-0.1,0-0.2l0,0l0,0c0-0.1,0-0.1,0-0.1s0,0,0-0.1c0,0,0,0,0-0.1c-0.1-0.2-2.9-3.7-8.2-5
							c1-0.9,1.6-2.1,1.6-3.4c0-2-1.3-3.3-1.9-3.8c0.2-0.4,0.3-0.9,0.3-1.4c0-1.4-0.6-2.8-1.9-3.9c-0.9-0.8-2-1.1-3-1.3l0,0
							c-0.1-0.1-1.7-3.2-5.6-3.2c-2.9,0-4.4,1.4-5.1,2.1c-0.4-0.3-0.9-0.5-1.4-0.6c-1.4-0.2-2.9,0.4-3.9,1.7c-1.6,2-1.5,4.2-1.4,5.1
							c-1.4,0.9-2.8,2.5-2.8,4.9c0,1.6,0.5,3.1,1.5,4.5c-3.6,1.5-6,4.8-6.1,5v0.1l0,0c0,0.1,0,0.1,0,0.2l0,0l0,0c0,0.1,0,0.1,0,0.2
							l0,0l0,0c0.1,0.2,1.3,3,4.6,4.6c-2,0.6-4.3,1.1-7.3,1.1c-0.3,0-0.5,0.2-0.5,0.5s0.2,0.5,0.5,0.5c3.9,0,6.6-0.8,9-1.6
							c1.7-0.5,3.3-1,4.8-1c3.2,0,4.9,1.7,4.9,1.7l1.1,1.1c0.1,0.1,0.2,0.2,0.4,0.2c0.1,0,0.3-0.1,0.4-0.2c0.2-0.2,0.2-0.5,0-0.7H22
							v-4.2V35c0-0.1,0.1-0.3,0.3-0.3c0.1,0,0.3,0.1,0.3,0.3v3.7v3.8c0,0.3,0.2,0.5,0.5,0.5s0.5-0.2,0.5-0.5v-2.1
							c0.3,0.4,0.8,0.8,1.4,1.1c0.2,0.1,0.6,0.1,0.7-0.2c0.1-0.2,0.1-0.6-0.2-0.7c-1.3-0.8-1.8-1.7-1.9-2v-1.4l2.3-0.1l1.1,3.6
							c0.1,0.2,0.3,0.4,0.5,0.4c0.1,0,0.1,0,0.2,0c0.3-0.1,0.4-0.4,0.3-0.6L27,37l1.6-0.1l1.9,3.3c0.1,0.2,0.3,0.3,0.5,0.3
							c0.1,0,0.2,0,0.3-0.1c0.2-0.1,0.3-0.5,0.2-0.7l-1.6-2.9l3.3-0.1l2.3,3.8c-0.1,0.1-0.3,0.1-0.4,0.2c-0.3,0.1-0.4,0.4-0.3,0.7
							c0.1,0.2,0.3,0.3,0.5,0.3c0.1,0,0.1,0,0.2,0c0.3-0.1,0.7-0.3,1-0.5l0,0l0,0c3.8-1.9,6-4.9,6.1-5C42.4,36.1,42.4,36.1,42.5,36
							C42.5,36.1,42.5,36,42.5,36 M27,36l2.2-4.8c0.3-0.1,0.6-0.1,0.9-0.1c0.8,0,1.5,0.1,2.2,0.2L28.6,36H27z M18.7,18.5
							c0.1-0.1,0.3-0.2,0.4-0.3c0.4,0.5,1.3,1.3,2.5,1.5c0.2,0,0.3,0,0.5,0c0.9,0,1.8-0.3,2.8-1c-0.3,0.6-0.8,1.4-1.8,2.3
							c-0.4,0.4-1,0.6-1.5,0.6c-1.4-0.1-2.9-1.4-3.4-1.9c0-0.3,0.1-0.5,0.1-0.8C18.5,19,18.6,18.7,18.7,18.5 M20.4,18.1
							c0.2-0.4,0.8-1.1,2-1.1c0.8,0,1.2,0.6,1.4,1.3c-0.7,0.4-1.4,0.5-2,0.4C21.2,18.7,20.8,18.4,20.4,18.1 M18.3,21.2
							c0.8,0.7,2.1,1.5,3.4,1.6c0.9,0,1.6-0.3,2.3-0.9c1.8-1.7,2.3-3.1,2.4-3.9c0.4,0.1,1,0.2,1.4,0.7c0.3,0.3,0.4,0.7,0.3,1.2
							c-0.1,1.2-1.4,3.8-3.7,4.9c-1.8,0.9-3.7,0.7-5.8-0.6C18.4,23.2,18.2,22.2,18.3,21.2 M22.1,26.2c1.1,0,2-0.3,2.7-0.6
							c2.6-1.2,4.1-4.1,4.3-5.7c0.9,0.8,2.4,2.4,2.4,5.5c0,2.2-0.7,3.8-2,4.7l0,0c-0.3,0-0.5,0.1-0.8,0.2l0,0
							c-0.4,0.1-0.9,0.3-1.3,0.5h-0.2l0,0l0,0c0,0-4.7-0.6-7.2-3.9c-0.3-0.4-0.5-0.8-0.8-1.2C20.3,26,21.3,26.2,22.1,26.2
							 M33.5,31.5c0.7,0.2,1.4,0.4,2.1,0.6L33,35.7l-3,0.1L33.5,31.5z M36.5,32.5c0.5,0.2,0.9,0.4,1.3,0.7l-1.3,2.4l-2.2,0.1
							L36.5,32.5z M38.7,33.7c0.9,0.6,1.6,1.2,2.1,1.7l-3.1,0.1L38.7,33.7z M34.8,27.2c0,1.3-0.8,2.5-1.9,3.1
							c-0.6-0.1-1.1-0.1-1.7-0.2c0.8-0.9,1.5-2.3,1.5-4.7c0-0.1,0-0.2,0-0.3c0.3-0.3,0.6-0.6,0.9-0.9C33.9,24.8,34.8,25.8,34.8,27.2
							 M33.2,21.9c0,0.7-0.3,1.4-0.8,1.9c-0.6-3.5-3-5-3.5-5.3c-0.1-0.2-0.2-0.4-0.4-0.6c-0.1-0.1-0.1-0.1-0.2-0.2
							c1.1,0.1,2.4,0.3,3.4,1.1C32.7,19.7,33.2,20.8,33.2,21.9 M23.7,14.7c2.4,0,3.7,1.3,4.3,2c-1.2,0-2.2,0.2-2.3,0.2l0,0
							c0,0,0,0-0.1,0l0,0l0,0c0,0-0.1,0-0.1,0.1l0,0c-0.3,0.3-0.6,0.5-0.8,0.7c-0.4-1.1-1.2-1.7-2.3-1.7c-1.4,0-2.2,0.7-2.7,1.3
							c-0.1-0.3-0.2-0.5-0.4-0.8C19.8,15.9,21.1,14.7,23.7,14.7 M14.1,17.5c0.8-1,1.9-1.5,3-1.4c0.5,0.1,0.9,0.3,1.2,0.7l0,0
							c0.1,0.1,0.2,0.3,0.3,0.5c-0.2,0.1-0.4,0.3-0.6,0.4c-0.3,0.3-0.5,0.6-0.5,0.9c-0.4,0.2-1.4,0.9-2.3,2
							c-0.4,0.1-1.3,0.3-2.3,0.8C12.8,20.6,13,19,14.1,17.5 M10.1,26.9c0-1.8,0.9-3.3,2.6-4.3c0.6-0.3,1.1-0.5,1.6-0.7
							c-0.2,0.4-0.4,0.9-0.5,1.4c-0.6,2.2-0.2,4.7,1.3,7.4c-0.4,0-0.7,0-1.1,0c-0.9,0-1.7,0.1-2.5,0.4
							C10.6,29.8,10.1,28.4,10.1,26.9 M19,40.7c-0.7-0.3-1.5-0.5-2.6-0.6l1.7-2.9H21v1.4C20.9,38.9,20.4,39.9,19,40.7L19,40.7
							 M12.5,40.5l2.2-3.3H17l-1.7,2.9C14.3,40.1,13.4,40.3,12.5,40.5 M10.6,41.1L10.4,41c-0.5-0.2-0.9-0.4-1.3-0.6l2.2-3.2h2.1
							L11,40.9l0,0C10.9,41,10.7,41,10.6,41.1 M12.8,31.8l0.9,4.4h-2.4l-2.2-2.8C10.2,32.7,11.5,32.1,12.8,31.8 M15.5,31.8l1.6,4.4
							h-2.3l-0.9-4.5c0.1,0,0.1,0,0.2,0C14.6,31.7,15,31.8,15.5,31.8 M21,35v1.2h-2.8L16.6,32c2.7,0.6,4,2,4.4,2.4V35z M8.3,34
							l1.7,2.2H6C6.5,35.6,7.3,34.8,8.3,34 M5.8,37.2h4.3l-1.8,2.6C7,38.9,6.2,37.9,5.8,37.2 M20.1,41.2c0.4-0.3,0.7-0.6,0.9-0.8
							v1.5C20.8,41.7,20.5,41.5,20.1,41.2 M22.3,33.7c-0.2,0-0.3,0-0.5,0.1c-0.4-0.5-2.1-2.3-5.4-2.9c-1.7-2.7-2.2-5.1-1.7-7.3
							c0.5-1.8,1.7-2.9,2.5-3.6c-0.2,1.6,0,3.1,0.4,4.4v0.1c0.3,1,0.8,2,1.4,2.8c2,2.7,5.1,3.7,6.8,4.1c-1.6,0.9-2.9,2.1-3.1,2.3
							C22.6,33.7,22.5,33.7,22.3,33.7 M23.6,35v-0.5c0.5-0.5,2.4-2,4.3-2.8l-2.1,4.4l-2.3,0.1L23.6,35L23.6,35z M34.2,36.7l2.4-0.1
							l1.6,2.2c-0.6,0.4-1.3,0.9-2,1.3L34.2,36.7z M39,38.2l-1.2-1.6l3-0.1C40.4,36.9,39.8,37.5,39,38.2"/>
					</g>
					<g>
						<defs>
							<rect id="SVGID_105_" width="43.8" height="65"/>
						</defs>
						<clipPath id="SVGID_106_">
							<use xlink:href="#SVGID_105_"  style="overflow:visible;"/>
						</clipPath>
						<path class="st56" d="M10.1,56c-3-3.9-8.3-2.9-8.5-2.9c-0.3,0.1-0.5,0.3-0.4,0.6s0.3,0.5,0.6,0.4c0,0,4.8-0.9,7.5,2.5
							c0.2,0.3,0.5,0.6,0.8,0.8c0.1,0.1,0.2,0.1,0.3,0.1s0.3-0.1,0.4-0.2c0.2-0.2,0.2-0.5,0-0.7C10.6,56.5,10.3,56.2,10.1,56"/>
					</g>
					<g>
						<defs>
							<rect id="SVGID_107_" width="43.8" height="65"/>
						</defs>
						<clipPath id="SVGID_108_">
							<use xlink:href="#SVGID_107_"  style="overflow:visible;"/>
						</clipPath>
						<path class="st57" d="M32,52.8l-0.1-0.1c-0.3-0.3-4-4-6.8-6.8c-0.2-0.2-0.5-0.2-0.7,0s-0.2,0.5,0,0.7c2.8,2.8,6.4,6.4,6.8,6.8
							l0.1,0.1c0.5,0.5,1.9,1.9,1.9,2.9c0,0.3-0.1,0.5-0.3,0.7c-0.3,0.3-0.6,0.4-0.9,0.4c-0.7,0-1.4-0.6-1.5-0.8
							c-0.3-0.3-0.6-0.6-0.8-0.8c-0.1-0.1-0.2-0.2-0.2-0.2l-2.2-2.2l-0.7,0.7l2.2,2.2c0.1,0.1,0.2,0.2,0.3,0.3
							c0.5,0.4,1.6,1.4,1.6,2.2c0,0.2-0.1,0.3-0.2,0.5c-0.2,0.2-0.5,0.4-0.7,0.3c-0.5,0-1.1-0.5-1.2-0.7l0,0
							c-0.1-0.2-0.3-0.4-0.5-0.6l-2.7-2.7l-0.7,0.7l2.7,2.7c0.4,0.4,0.7,0.8,0.8,1.2c0.1,0.3,0,0.6-0.3,0.9c-0.5,0.5-1.3,0.1-1.5,0
							c-0.1-0.2-0.3-0.4-0.5-0.6c-0.6-0.6-2.2-2.4-2.2-2.4c-0.2-0.2-0.5-0.2-0.7,0s-0.2,0.5,0,0.7c0.1,0.1,1.6,1.8,2.3,2.5
							c0.3,0.3,0.4,0.6,0.5,0.9c0.1,0.3,0,0.6-0.3,0.9c-0.1,0.1-0.2,0.1-0.4,0.1c-0.3,0-1.2-0.2-2.7-1.9c-0.2-0.2-0.5-0.2-0.7,0
							s-0.2,0.5,0,0.7c1.4,1.5,2.5,2.2,3.5,2.2l0,0c0.4,0,0.8-0.2,1.1-0.4c0.4-0.4,0.6-0.9,0.6-1.4c0.2,0,0.4,0.1,0.5,0.1
							c0.5,0,0.9-0.1,1.4-0.6c0.4-0.4,0.6-0.9,0.6-1.4c0.2,0.1,0.4,0.1,0.6,0.1h0.1c0.5,0,1-0.2,1.4-0.6c0.4-0.4,0.5-0.8,0.5-1.3
							c0-0.1,0-0.3-0.1-0.4c0.1,0,0.3,0,0.4,0l0,0c0.6,0,1.1-0.2,1.6-0.7c0.4-0.4,0.6-0.9,0.6-1.4C34.2,55,32.7,53.5,32,52.8"/>
					</g>
					<g>
						<defs>
							<rect id="SVGID_109_" width="43.8" height="65"/>
						</defs>
						<clipPath id="SVGID_110_">
							<use xlink:href="#SVGID_109_"  style="overflow:visible;"/>
						</clipPath>
						<path class="st58" d="M21.3,58.9c-0.2,0-0.3,0-0.5,0.1c0.2-0.4,0.3-0.8,0.3-1.2c0-0.5-0.2-1-0.6-1.4c-0.3-0.3-0.7-0.5-1.1-0.5
							c-0.3,0-0.5,0.1-0.8,0.2c0-0.6-0.3-1-0.6-1.3c-0.8-0.8-1.8-0.5-2.6,0v-0.1c0-0.4-0.2-0.8-0.5-1.1c-0.3-0.2-0.6-0.4-0.9-0.4
							c-0.9,0-1.7,0.8-2.3,1.5l-0.1,0.1c-0.4,0.4-1,1.1-1.5,1.8c-0.8,1.3-0.5,2.1-0.1,2.5c0.3,0.3,0.6,0.4,1,0.4
							c0.2,0,0.3,0,0.5-0.1c-0.2,0.7-0.1,1.3,0.4,1.8c0.4,0.4,0.8,0.6,1.3,0.6c0.2,0,0.4,0,0.6-0.1c-0.1,0.6,0,1.1,0.5,1.5
							c0.3,0.3,0.7,0.5,1.2,0.5l0,0c0.5,0,1-0.2,1.5-0.6c-0.1,0.5,0,1,0.3,1.4c0.2,0.3,0.6,0.4,1,0.4l0,0c1.5,0,3.6-2.3,4.2-3.8
							c0.4-1.1,0.2-1.6-0.1-1.9C22.1,59,21.7,58.9,21.3,58.9 M10.8,58.3c-0.3-0.3,0-0.9,0.2-1.2c0.4-0.7,1-1.3,1.3-1.6l0.1-0.1
							c0.4-0.4,1.2-1.2,1.6-1.2c0.1,0,0.1,0,0.2,0.1c0.1,0.1,0.1,0.2,0.1,0.3c0,0.6-0.8,1.7-1.5,2.5l-0.2,0.2
							c-0.4,0.4-1.1,1.2-1.6,1.2C11,58.5,10.9,58.4,10.8,58.3 M12.7,60.5c-0.6-0.6,0.5-2.3,1.9-3.6c1.4-1.4,2.2-1.8,2.7-1.3
							c0.2,0.2,0.6,0.6-0.2,1.5c-0.3,0.3-0.6,0.5-0.8,0.8c-0.6,0.6-1.4,1.5-1.9,2.4C14,60.6,13.2,61,12.7,60.5 M15,62.4
							c-0.6-0.6,0.5-2.4,2-3.9c0.2-0.2,0.5-0.5,0.8-0.8l0,0l0,0c0.5-0.5,1.1-0.9,1.5-0.9c0.2,0,0.3,0.1,0.4,0.2
							c0.2,0.2,0.3,0.4,0.3,0.7c0,1-1.4,2.4-2,3l0,0.1c-0.1,0.1-0.2,0.2-0.2,0.2c-0.6,0.6-1.5,1.6-2.2,1.6
							C15.3,62.6,15.2,62.6,15,62.4 M21.5,60.8C21,62.2,19.2,64,18.3,64c-0.1,0-0.2,0-0.2-0.1c-0.4-0.5,0.3-1.7,1.6-3
							c0.6-0.6,1.2-1,1.6-1c0.1,0,0.2,0,0.3,0.1C21.7,60.1,21.7,60.4,21.5,60.8"/>
					</g>
					<g>
						<defs>
							<rect id="SVGID_111_" width="43.8" height="65"/>
						</defs>
						<clipPath id="SVGID_112_">
							<use xlink:href="#SVGID_111_"  style="overflow:visible;"/>
						</clipPath>
						<path class="st59" d="M18.4,48.9c0-2.2,3.5-4.8,5.2-6c0.4-0.3,0.7-0.5,0.9-0.6c1.2-1,3.6-1.5,6.6-1.5c2.3,0,4.1,1,5.3,1.9
							c1.5,1.1,6.1,1.1,6.6,1.1c0.3,0,0.5-0.2,0.5-0.5s-0.2-0.5-0.5-0.5l0,0c-1.9,0-5.1-0.2-6-0.9c-1.3-1-3.4-2.1-5.9-2.1
							c-3.2,0-5.8,0.6-7.2,1.8c-0.2,0.1-0.5,0.4-0.8,0.6c-2,1.4-5.6,4.1-5.7,6.9c0,0.3-0.2,2.8,0.9,4.1c0.4,0.5,1,0.7,1.6,0.7
							s1.1-0.2,1.4-0.5c0.7-0.8,0.7-2.2,0.6-3.3c0-0.4,0-1,0-1.2c0.6-0.8,1.9-1.9,2.8-1.9c0.3,0,0.5-0.2,0.5-0.5S25,46,24.7,46
							c-1.5,0-3.1,1.7-3.6,2.3c-0.3,0.4-0.3,1-0.2,1.8c0,0.9,0.1,2.1-0.3,2.5c-0.1,0.1-0.3,0.2-0.6,0.2c-0.4,0-0.6-0.1-0.9-0.4
							C18.3,51.5,18.3,49.6,18.4,48.9C18.4,49,18.4,49,18.4,48.9"/>
					</g>
				</g>
			</g>
		</g>
	</g>
</g>
</svg>
