<svg id="Layer_1" data-name="Layer 1" xmlns="http://www.w3.org/2000/svg" viewBox="0 0 418 418"><defs><style>.cls-1,.cls-4{fill:#ec1f27;}.cls-1,.cls-2,.cls-7{stroke:#fff;}.cls-1{stroke-miterlimit:10;}.cls-2,.cls-3{fill:#efeb37;}.cls-2,.cls-7{stroke-linecap:round;stroke-linejoin:round;stroke-width:2.5px;}.cls-5{fill:#241e1f;}.cls-6,.cls-7{fill:#eb2027;}.cls-8{fill:#fff;}</style></defs><title>TowerBridgeLogoCircle</title><circle class="cls-1" cx="209" cy="209" r="208.5"/><g id="Style2"><path class="cls-2" d="M309.8,73.9"/><path class="cls-2" d="M252,65.36"/><path class="cls-3" d="M302.51,168.5a2.91,2.91,0,0,1-2.18-1l-42.49-48.31a2.89,2.89,0,1,1,4.34-3.83l42.5,48.31a2.89,2.89,0,0,1-2.17,4.81Z"/><path class="cls-3" d="M260,165.48a2.9,2.9,0,0,1-2-5l42.49-40.73a2.9,2.9,0,1,1,4,4.18L262,164.67A2.87,2.87,0,0,1,260,165.48Z"/><path class="cls-3" d="M302.51,222a2.87,2.87,0,0,1-2.14-.95l-42.5-46.43a2.9,2.9,0,0,1,4.28-3.91l42.49,46.44a2.89,2.89,0,0,1-.18,4.09A2.86,2.86,0,0,1,302.51,222Z"/><path class="cls-3" d="M260,220.87a2.9,2.9,0,0,1-2.05-5l42.5-42.61a2.9,2.9,0,1,1,4.1,4.09L262.06,220A2.93,2.93,0,0,1,260,220.87Z"/><path class="cls-3" d="M260,117.29l42.5,4.56V165.6l-42.5-3V117.29m0-5.79a5.78,5.78,0,0,0-5.79,5.79v45.29a5.79,5.79,0,0,0,5.38,5.78l42.5,3h.41a5.78,5.78,0,0,0,5.79-5.79V121.85a5.79,5.79,0,0,0-5.17-5.76l-42.5-4.56-.62,0Z"/><path class="cls-3" d="M260,172.68l43.47,2.74v43.72L260,218V172.68m0-5.79a5.78,5.78,0,0,0-5.79,5.79V218a5.79,5.79,0,0,0,5.63,5.79l43.48,1.17h.15a5.8,5.8,0,0,0,5.8-5.79V175.42a5.79,5.79,0,0,0-5.43-5.78l-43.48-2.74Z"/><path class="cls-3" d="M266.36,100.88a2.89,2.89,0,0,1-2.89-2.9V84.05a2.9,2.9,0,0,1,5.79,0V98A2.9,2.9,0,0,1,266.36,100.88Z"/><path class="cls-3" d="M276.44,102.12a2.9,2.9,0,0,1-2.89-2.9V85.41a2.9,2.9,0,1,1,5.79,0V99.22A2.9,2.9,0,0,1,276.44,102.12Z"/><path class="cls-3" d="M286.36,103.34a2.89,2.89,0,0,1-2.89-2.89V86.74a2.9,2.9,0,1,1,5.79,0v13.71A2.9,2.9,0,0,1,286.36,103.34Z"/><path class="cls-3" d="M296.13,104.54a2.89,2.89,0,0,1-2.9-2.89V88.05a2.9,2.9,0,0,1,5.79,0v13.6A2.89,2.89,0,0,1,296.13,104.54Z"/><path class="cls-3" d="M242.86,40.78,252,42.29V217.75l-9.12-.24V40.78m0-5.79a5.77,5.77,0,0,0-5.79,5.79V217.51a5.79,5.79,0,0,0,5.63,5.79l9.13.24H252a5.8,5.8,0,0,0,5.79-5.8V42.29a5.78,5.78,0,0,0-4.84-5.71l-9.12-1.52a6.16,6.16,0,0,0-.95-.07Z"/><path class="cls-3" d="M309.8,51.89,318,53.25V219.53l-8.19-.22V51.89m0-5.79a5.79,5.79,0,0,0-5.8,5.79V219.31a5.8,5.8,0,0,0,5.64,5.79l8.19.22H318a5.79,5.79,0,0,0,5.79-5.79V53.25a5.81,5.81,0,0,0-4.85-5.72l-8.19-1.36a6,6,0,0,0-.94-.07Z"/><path class="cls-3" d="M247.44,38.68a2.9,2.9,0,0,1-2.9-2.9V32.35a2.9,2.9,0,1,1,5.79,0v3.43A2.89,2.89,0,0,1,247.44,38.68Z"/><path class="cls-3" d="M313.9,50A2.89,2.89,0,0,1,311,47.12V43.86a2.9,2.9,0,1,1,5.79,0v3.26A2.9,2.9,0,0,1,313.9,50Z"/><path class="cls-3" d="M257.77,75.21,304,81.92v29.64l-46.23-5.13V75.21M252,68.52v43.1L309.8,118V76.91L252,68.52Z"/><path class="cls-2" d="M166.84,105.77"/><path class="cls-2" d="M114.21,100.07"/><path class="cls-3" d="M160.16,184a2.9,2.9,0,0,1-2.06-.86l-38.69-38.91a2.9,2.9,0,0,1,4.11-4.08l38.69,38.91a2.9,2.9,0,0,1-2.05,4.94Z"/><path class="cls-3" d="M121.47,182a2.89,2.89,0,0,1-1.91-5.07l38.69-33.86a2.9,2.9,0,1,1,3.81,4.36l-38.69,33.86A2.93,2.93,0,0,1,121.47,182Z"/><path class="cls-3" d="M160.16,227.86a2.91,2.91,0,0,1-2-.82l-38.69-37.66a2.9,2.9,0,0,1,4-4.15l38.69,37.66a2.9,2.9,0,0,1-2,5Z"/><path class="cls-3" d="M121.47,227.1a2.9,2.9,0,0,1-2-5L158.21,187a2.9,2.9,0,0,1,3.89,4.29l-38.69,35.11A2.89,2.89,0,0,1,121.47,227.1Z"/><path class="cls-3" d="M121.47,142.19l38.69,3V181.1l-38.69-2v-36.9m0-5.79a5.79,5.79,0,0,0-5.8,5.79v36.9a5.79,5.79,0,0,0,5.49,5.78l38.69,2h.31A5.8,5.8,0,0,0,166,181.1V145.23a5.8,5.8,0,0,0-5.34-5.77l-38.69-3a3.39,3.39,0,0,0-.45,0Z"/><path class="cls-3" d="M121.47,187.31l39.58,1.83V225l-39.58-.78V187.31m0-5.79a5.8,5.8,0,0,0-5.8,5.79V224.2a5.79,5.79,0,0,0,5.68,5.79l39.59.78h.11a5.77,5.77,0,0,0,5.79-5.79V189.14a5.79,5.79,0,0,0-5.52-5.79l-39.59-1.83Z"/><path class="cls-3" d="M127.22,129.24a2.9,2.9,0,0,1-2.9-2.9V115a2.9,2.9,0,0,1,5.8,0v11.35A2.9,2.9,0,0,1,127.22,129.24Z"/><path class="cls-3" d="M136.37,130.07a2.9,2.9,0,0,1-2.9-2.9V115.89a2.9,2.9,0,1,1,5.8,0v11.28A2.9,2.9,0,0,1,136.37,130.07Z"/><path class="cls-3" d="M145.4,130.88a2.89,2.89,0,0,1-2.89-2.89V116.78a2.9,2.9,0,1,1,5.79,0V128A2.9,2.9,0,0,1,145.4,130.88Z"/><path class="cls-3" d="M154.31,131.69a2.89,2.89,0,0,1-2.89-2.9V117.66a2.9,2.9,0,1,1,5.79,0v11.13A2.9,2.9,0,0,1,154.31,131.69Z"/><path class="cls-3" d="M106,80.3l8.22,1V224.06L106,223.9V80.3m0-5.79a5.78,5.78,0,0,0-5.79,5.79V223.9a5.79,5.79,0,0,0,5.68,5.79l8.22.16h.11a5.77,5.77,0,0,0,5.79-5.79V81.3a5.78,5.78,0,0,0-5.09-5.75l-8.22-1a5.48,5.48,0,0,0-.7,0Z"/><path class="cls-3" d="M166.84,87.71l7.53.91V225.24l-7.53-.14V87.71m0-5.8a5.8,5.8,0,0,0-5.79,5.8V225.1a5.79,5.79,0,0,0,5.68,5.79l7.52.15h.12a5.8,5.8,0,0,0,5.79-5.8V88.62a5.79,5.79,0,0,0-5.09-5.75L167.54,82a5.49,5.49,0,0,0-.7,0Z"/><path class="cls-3" d="M110.11,79a2.89,2.89,0,0,1-2.89-2.9v-2.8a2.9,2.9,0,0,1,5.79,0v2.8A2.9,2.9,0,0,1,110.11,79Z"/><path class="cls-3" d="M170.61,86.58a2.89,2.89,0,0,1-2.89-2.89V81a2.9,2.9,0,0,1,5.79,0v2.68A2.89,2.89,0,0,1,170.61,86.58Z"/><path class="cls-3" d="M120,109.08l41.05,4.37V135.7L120,132.36V109.08m-5.79-6.44V137.7L166.84,142V108.24l-52.63-5.6Z"/><path class="cls-4" d="M317.89,230.57a2.72,2.72,0,0,0-.2-.83,8580353334440.8,8580353334440.8,0,0,0-.36-.66c-.8-1-16.4-20.67-46-28a25.68,25.68,0,0,0,8.78-19c0-11.08-7-18.46-10.48-21.4a22.8,22.8,0,0,0,1.72-8c.26-7.9-3.53-15.8-10.41-21.69-5-4.25-11.11-6.3-17-7.21,0-.07,0-.14-.06-.2A35.87,35.87,0,0,0,212.39,106c-16.1,0-24.88,7.69-28.56,12.05a17.48,17.48,0,0,0-7.79-3.45c-7.77-1.35-16,2.3-22.09,9.76-9.1,11.2-8.65,23.82-8,28.65-8.14,5.21-15.72,13.77-15.72,27.63a42.48,42.48,0,0,0,8.42,25.31c-20.28,8.4-33.55,27-34.26,28a3,3,0,0,0-.23.43,1.09,1.09,0,0,0-.08.15,3,3,0,0,0-.2,1s0,.06,0,.1a.45.45,0,0,0,0,.11,2.92,2.92,0,0,0,.18,1l0,0v0c.42,1,7.12,16.68,25.91,26A140.79,140.79,0,0,1,89,269a2.9,2.9,0,0,0,0,5.79c21.76,0,37.07-4.7,50.58-8.85,9.81-3,18.27-5.61,27.08-5.61,18.25,0,27.4,9.33,27.55,9.48l3.76,3.76c1.73-1.38,3.42-2.68,5-3.89,1-.74,1.94-1.45,2.85-2.12l2.38-1.73c1.31-1,2.48-1.81,3.41-2.51l1.09-.85a25.33,25.33,0,0,1,3.19-2.24,38,38,0,0,1,6-2.89,61.59,61.59,0,0,1,8.23-2.48q2.74-.63,5.73-1.1a105.6,105.6,0,0,1,12.51-1.17c1.6-.06,3.23-.1,4.88-.1.59,0,1.16,0,1.73,0a52.47,52.47,0,0,1,21,5.44,66,66,0,0,1,6.24,3.48c.3-.15.62-.28.91-.42.05,0,.11,0,.15-.07s0,0,0,0a100.93,100.93,0,0,0,34.13-28.36,2.67,2.67,0,0,0,.22-.45,2.8,2.8,0,0,0,.15-.3,3,3,0,0,0,.16-1v0A.94.94,0,0,0,317.89,230.57Z"/><path class="cls-4" d="M197.43,282.86l-8.18-8.18c-.33-.33-7.72-7.44-22.63-7.44-7.76,0-15.76,2.45-25,5.3-14,4.3-29.83,9.17-52.64,9.17A9.85,9.85,0,0,1,89,262a126.73,126.73,0,0,0,24-2.27,58.44,58.44,0,0,1-15.39-20.36l-.23-.63a9.57,9.57,0,0,1-.4-1.7l-.11-.37v-2.07l.12-.42a9.63,9.63,0,0,1,.61-2.27l.35-.75a8.48,8.48,0,0,1,.71-1.22c1.34-1.9,12.39-17.18,30-26.95a48.42,48.42,0,0,1-5.44-22.4c0-12.62,5.33-23.28,15.46-31.06a45,45,0,0,1,9.87-29.61c7.67-9.44,18.39-14,28.67-12.22a24.87,24.87,0,0,1,5.46,1.61C188.41,104.38,198,99,212.39,99a43.26,43.26,0,0,1,36,18.61,38.77,38.77,0,0,1,17.09,8.17C274,133.06,278.63,143,278.3,153a29,29,0,0,1-.75,5.73c4.22,4.63,9.52,12.59,9.52,23.39a31.72,31.72,0,0,1-4,15.3c24.9,9.07,38.15,25.36,39.74,27.4a7.54,7.54,0,0,1,.81,1.29,9,9,0,0,1,.49,1,9.34,9.34,0,0,1,.55,1.82l.13.38.09,2.39-.06.22a10,10,0,0,1-.48,2.14l-.46,1.08a7.1,7.1,0,0,1-.82,1.45,108.56,108.56,0,0,1-36.31,30.36l-.9.45-.42.19-3.69,1.79-3.28-2.07a57.2,57.2,0,0,0-5.57-3.1,45.21,45.21,0,0,0-18.21-4.74h-.32c-1.93-.08-3.88,0-5.77.06a101.56,101.56,0,0,0-11.71,1.1c-1.81.28-3.58.62-5.23,1a52.44,52.44,0,0,0-7.28,2.18,32.32,32.32,0,0,0-4.89,2.36,19.68,19.68,0,0,0-2.35,1.64c-.35.3-.81.65-1.31,1-1,.73-2.18,1.62-3.54,2.61l-2.36,1.71-2.79,2.07c-1.56,1.17-3.18,2.42-4.84,3.75Zm-30.81-29.53c18.43,0,29.18,8.53,31.88,11l.3-.23c1-.75,2-1.48,2.92-2.16l2.39-1.74c1.27-.92,2.4-1.74,3.29-2.42.33-.25.63-.48.87-.68a33.65,33.65,0,0,1,4-2.83,45.62,45.62,0,0,1,7-3.42,67.79,67.79,0,0,1,9.19-2.77c2-.46,4.07-.86,6.21-1.2a116.34,116.34,0,0,1,13.33-1.25c2.24-.08,4.56-.15,6.85-.06h.28A59,59,0,0,1,279,251.68c1.17.57,2.32,1.17,3.47,1.81A97.26,97.26,0,0,0,309.78,231a82.71,82.71,0,0,0-40.11-23.15l-12.82-3.16,9.87-8.78a18.6,18.6,0,0,0,6.45-13.78c0-8.32-5.63-14.05-8.05-16.13l-3.82-3.27,1.91-4.65a15.65,15.65,0,0,0,1.2-5.53c.19-5.78-2.72-11.67-8-16.18-3.34-2.86-7.89-4.75-13.52-5.62l-3.8-.59-1.56-3.63a28.94,28.94,0,0,0-25.16-13.6c-13.18,0-20.23,6-23.26,9.59l-4.3,5.08-5.26-4.08a10.58,10.58,0,0,0-4.71-2.09c-5.24-.91-11.06,1.81-15.51,7.29a31.38,31.38,0,0,0-6.55,23.41l.54,4.35-3.69,2.36c-8.42,5.39-12.52,12.51-12.52,21.78a35.69,35.69,0,0,0,7.11,21.24l5.15,7.13-8.13,3.36c-15.14,6.27-26.07,18.93-29.82,23.73A50.07,50.07,0,0,0,133,256.51l5.13,2.54C148.24,256,157,253.33,166.62,253.33Zm-56.38-15.69-.16.3A2.85,2.85,0,0,0,110.24,237.64Zm-.21.29h0ZM311.56,233l0,.05Z"/><g id="DSA"><path class="cls-5" d="M320.18,327c-3.75.09-36.84.92-43.66,2.61-4.83,1.21-13.62-.93-16.6-1.85a2.9,2.9,0,1,0-1.72,5.53A57.83,57.83,0,0,0,273,335.78a20.61,20.61,0,0,0,4.89-.52c5.24-1.3,32.38-2.2,42.4-2.44a2.9,2.9,0,1,0-.14-5.79Z"/><line class="cls-6" x1="315.04" y1="230.85" x2="208.71" y2="235.61"/><line class="cls-6" x1="226.56" y1="234" x2="241.35" y2="202.23"/><line class="cls-6" x1="241.35" y1="234.15" x2="266.16" y2="202.95"/><line class="cls-6" x1="266.16" y1="233.04" x2="283.34" y2="208.15"/><line class="cls-6" x1="286.08" y1="232.15" x2="295.77" y2="214.56"/><line class="cls-6" x1="286.08" y1="232.15" x2="297.94" y2="248.08"/><line class="cls-6" x1="266.16" y1="233.04" x2="281.73" y2="258.45"/><line class="cls-6" x1="241.35" y1="234.15" x2="252.65" y2="254.35"/><line class="cls-6" x1="226.56" y1="234" x2="233.8" y2="257"/><line class="cls-6" x1="106.71" y1="235.61" x2="200.07" y2="235.61"/><line class="cls-6" x1="179.32" y1="235.61" x2="168.03" y2="205.42"/><line class="cls-6" x1="159.87" y1="235.61" x2="153.39" y2="205.02"/><line class="cls-6" x1="141.29" y1="235.61" x2="126.33" y2="216.22"/><line class="cls-6" x1="141.29" y1="235.61" x2="126.33" y2="257.39"/><line class="cls-6" x1="159.87" y1="235.61" x2="143.37" y2="260.86"/><path class="cls-7" d="M161.17,266.72"/><line class="cls-6" x1="179.32" y1="235.61" x2="166.62" y2="257.39"/><line class="cls-6" x1="231.19" y1="204.67" x2="233.13" y2="205.12"/><path class="cls-8" d="M317.77,231.78a3,3,0,0,0,.16-1v0a.94.94,0,0,0,0-.16,2.72,2.72,0,0,0-.2-.83,8580353334440.8,8580353334440.8,0,0,0-.36-.66c-.8-1-16.4-20.67-46-28a25.68,25.68,0,0,0,8.78-19c0-11.08-7-18.46-10.48-21.4a22.8,22.8,0,0,0,1.72-8c.26-7.9-3.53-15.8-10.41-21.69-5-4.25-11.11-6.3-17-7.21a1.17,1.17,0,0,0-.05-.2A35.87,35.87,0,0,0,212.39,106c-16.1,0-24.88,7.69-28.56,12.05a17.48,17.48,0,0,0-7.79-3.45c-7.77-1.35-16,2.3-22.09,9.76-9.1,11.2-8.65,23.82-8,28.65-8.14,5.21-15.72,13.77-15.72,27.63a42.48,42.48,0,0,0,8.42,25.31c-20.28,8.4-33.55,27-34.26,28a3,3,0,0,0-.23.43,1.09,1.09,0,0,0-.08.15,3,3,0,0,0-.2,1s0,.06,0,.1a.45.45,0,0,0,0,.11,2.92,2.92,0,0,0,.18,1l0,0v0c.42,1,7.12,16.68,25.91,26A140.79,140.79,0,0,1,89,269a2.9,2.9,0,0,0,0,5.79c21.76,0,37.07-4.7,50.58-8.85,9.81-3,18.27-5.61,27.08-5.61,18.25,0,27.4,9.33,27.55,9.48l6.08,6.08a2.9,2.9,0,1,0,4.09-4.1L203,270.38V226a1.43,1.43,0,0,1,2.85,0v42.24a2.9,2.9,0,1,0,5.79,0V256.34a37.58,37.58,0,0,0,7.82,6.31,2.9,2.9,0,1,0,3-4.95,28.07,28.07,0,0,1-10.83-11.32v-8l13.11-.59L231,257.87a2.9,2.9,0,0,0,5.53-1.74l-5.86-18.6,9-.41,10.43,18.64a2.89,2.89,0,0,0,2.53,1.48,2.85,2.85,0,0,0,1.41-.36,2.9,2.9,0,0,0,1.12-3.95l-9-16.1,18.42-.82,13,21.19c-.73.33-1.46.67-2.21,1a2.89,2.89,0,0,0,1.11,5.57,2.76,2.76,0,0,0,1.11-.23c1.91-.79,3.73-1.65,5.51-2.54.05,0,.11,0,.15-.07s0,0,0,0a100.93,100.93,0,0,0,34.13-28.36,2.67,2.67,0,0,0,.22-.45A2.8,2.8,0,0,0,317.77,231.78Zm-87-.06,12.56-27a27.19,27.19,0,0,1,5.33-.59,88.45,88.45,0,0,1,12.12.85L239.9,231.32Zm-46.44-98.23a17.56,17.56,0,0,1,2.29-1.62c2.31,2.9,7,7.56,14.19,8.6a20.14,20.14,0,0,0,2.91.21c5.05,0,10.3-1.91,15.69-5.6a45.48,45.48,0,0,1-9.86,13,11.4,11.4,0,0,1-8.62,3.41c-8-.28-16.21-7.77-18.84-10.4.16-1.48.36-3,.62-4.5A6.86,6.86,0,0,1,184.37,133.49Zm9.57-2.4a12.57,12.57,0,0,1,11.1-5.94c4.49,0,6.73,3.53,7.86,7.15-3.94,2.08-7.67,2.93-11.17,2.44A15.32,15.32,0,0,1,193.94,131.09Zm-12.3,17.43c4.47,3.74,11.6,8.52,19.11,8.79a17.15,17.15,0,0,0,12.85-5c9.83-9.41,12.71-17.59,13.54-22,2.37.41,5.81,1.38,7.92,3.71a8.1,8.1,0,0,1,1.89,6.5c-.56,6.48-8.07,21.2-21,27.51-10,4.86-20.88,3.66-32.32-3.55A56.52,56.52,0,0,1,181.64,148.52Zm21.81,28.22a34.14,34.14,0,0,0,15-3.48c14.44-7,23.24-22.81,24.23-31.82,5.18,4.22,13.5,13.7,13.5,30.95,0,12.52-3.91,21.59-11.32,26.21,0,0,0,0,0,0a38.38,38.38,0,0,0-4.3.84l-.21.06a51.12,51.12,0,0,0-7.41,2.55l-1-.24c-.06,0-.11,0-.16,0l-.17-.05c-.26,0-26.28-3.2-40.53-22.14a45.08,45.08,0,0,1-4.23-6.83A39.65,39.65,0,0,0,203.45,176.74Zm63.86,29.42a83.85,83.85,0,0,1,11.53,3.41L264.6,230.21l-17,.76Zm17,5.67c2.69,1.22,5.21,2.51,7.53,3.84l-7.52,13.66-12.48.56Zm12.46,6.91a84.85,84.85,0,0,1,11.86,9.5l-17.53.78Zm-22.45-36.63a20.17,20.17,0,0,1-10.77,17.42,93.63,93.63,0,0,0-9.79-1c4.45-5.08,8.2-13.19,8.2-26.13,0-.52-.06-1-.07-1.5a27.77,27.77,0,0,0,4.81-5C269.59,168.56,274.33,174.2,274.33,182.11Zm-8.76-29.54a17.61,17.61,0,0,1-4.34,10.91c-3.25-19.86-16.71-28.19-19.55-29.73a12.89,12.89,0,0,0-2.33-3.61c-.33-.36-.67-.69-1-1,6.28.31,13.55,1.8,18.85,6.34C262.71,140.21,265.77,146.44,265.57,152.57Zm-53.18-40.82a30.21,30.21,0,0,1,24.29,11.51A61.73,61.73,0,0,0,224,124.32c-.07,0-.13.07-.2.09s-.2,0-.3.08a1.4,1.4,0,0,0-.16.1l-.08,0a3,3,0,0,0-.48.31c-.06,0-.13.06-.18.12a52.62,52.62,0,0,1-4.69,4c-2.42-6.21-6.93-9.73-12.83-9.73a18.1,18.1,0,0,0-15,7.23,21.18,21.18,0,0,0-2.22-4.32C190.38,119,197.74,111.75,212.39,111.75ZM158.45,128c4.71-5.8,10.92-8.69,16.61-7.7a11.72,11.72,0,0,1,6.85,3.8l.08.09a13.85,13.85,0,0,1,1.84,2.65,23,23,0,0,0-3.3,2.35,11.78,11.78,0,0,0-3.09,5,48.27,48.27,0,0,0-13.05,11.48,58.66,58.66,0,0,0-12.93,4.29A32.44,32.44,0,0,1,158.45,128ZM136,180.6c0-10.29,5-18.35,14.86-23.94a48,48,0,0,1,8.95-3.87,41.27,41.27,0,0,0-3.06,7.76c-3.47,12.54-.92,26.51,7.54,41.56-2-.16-4-.26-6.14-.26a48.92,48.92,0,0,0-13.77,2C138.82,196.76,136,189,136,180.6ZM185.86,258a51,51,0,0,0-14.33-3.27L181,238.51h16.18v7.88c-.72,1.56-3.71,7.14-11.29,11.59Zm-36.51-1,12.09-18.5h12.84l-9.36,16A70.81,70.81,0,0,0,149.35,257Zm-10.89,3.16-.78-.35a53.88,53.88,0,0,1-7.2-3.36l12.33-17.95h11.71L141,259.28s0,.1-.06.15Zm12.65-51.91,5.19,24.45H142.71l-12.22-15.84A54.47,54.47,0,0,1,151.11,208.26Zm14.83-.17,9.21,24.62H162.22l-5.31-25c.4,0,.8,0,1.21,0A68.65,68.65,0,0,1,165.94,208.09ZM197.17,226v6.73H181.33l-8.8-23.54c15,3.31,22.63,11.12,24.64,13.5Zm-71.39-5.73,9.62,12.46H112.73A93.74,93.74,0,0,1,125.78,220.25Zm-14.24,18.26h24.25l-10.21,14.86A51.93,51.93,0,0,1,111.54,238.51Zm80.38,22.42a35.76,35.76,0,0,0,5.25-4.6v8.33A34.13,34.13,0,0,0,191.92,260.93Zm12.47-42.16a7.21,7.21,0,0,0-2.54.48c-2.25-2.75-11.57-12.69-30.29-16.16-9.44-15.14-12.57-28.91-9.27-40.92,2.7-9.86,9.27-16.5,13.9-20.14a65.46,65.46,0,0,0,2.06,24.77,3,3,0,0,0,.16.51,50.59,50.59,0,0,0,8,15.86c11.37,15.07,28.79,21,38.11,23.19A109,109,0,0,0,207,219.28,7.2,7.2,0,0,0,204.39,218.77Zm7.22,7.21v-3c3-2.68,13.2-11.27,24.28-15.84L224.29,232l-12.68.57Zm59.59,9.73,13.48-.6,9.22,12.4a90.91,90.91,0,0,1-11.12,7.12Zm27.24,8.2-6.78-9.11,17-.76A100.07,100.07,0,0,1,298.44,243.91Z"/><path class="cls-8" d="M136.1,343.85c-17-21.91-46.46-16.29-47.71-16.05a2.9,2.9,0,0,0,1.14,5.68c.27-.05,27.15-5.18,42,13.93a38.13,38.13,0,0,0,4.35,4.68,2.9,2.9,0,0,0,3.9-4.28A32.32,32.32,0,0,1,136.1,343.85Z"/><path class="cls-8" d="M258.81,326.2l-.79-.78-38-37.95a2.9,2.9,0,1,0-4.1,4.09l38,38,.83.82c3,2.91,10.89,10.65,10.92,16.47a4.9,4.9,0,0,1-1.57,3.68,7.17,7.17,0,0,1-5.08,2.29c-4,0-7.74-3.47-8.55-4.25-1.67-1.74-3.36-3.24-4.67-4.4-.57-.51-1-.92-1.33-1.21L232,330.4l-4.09,4.1L240.38,347c.36.35.91.84,1.6,1.45,2.69,2.39,9,8,9.14,12.18a3.66,3.66,0,0,1-1.23,2.81,5.37,5.37,0,0,1-4.17,1.88c-3-.13-6-3-6.9-4.11h0A30.37,30.37,0,0,0,236,358l-15.06-15.07-4.1,4.09,15.06,15.08c2.46,2.45,3.94,4.68,4.42,6.63s-.07,3.6-1.79,5.31c-2.85,2.86-7.11.8-8.55,0a16,16,0,0,0-2.54-3.32c-3.5-3.51-12.47-13.61-12.56-13.71a2.89,2.89,0,0,0-4.33,3.84c.37.42,9.17,10.34,12.8,14a9.61,9.61,0,0,1,2.78,5.14,5.31,5.31,0,0,1-1.63,4.88,2.91,2.91,0,0,1-2.09.83c-1.95,0-6.52-1.39-15.3-10.46a2.9,2.9,0,1,0-4.16,4c7.92,8.18,14.27,12.17,19.41,12.21h.08a8.54,8.54,0,0,0,6.16-2.52,11.21,11.21,0,0,0,3.38-8,14.15,14.15,0,0,0,3,.35,10.5,10.5,0,0,0,7.65-3.14,11.45,11.45,0,0,0,3.62-7.66,11.76,11.76,0,0,0,3.17.66h.52a11.31,11.31,0,0,0,8.05-3.58,9.46,9.46,0,0,0,2.92-7.08,10.52,10.52,0,0,0-.31-2.16,12.88,12.88,0,0,0,2.33.25h.18a12.58,12.58,0,0,0,9.1-4,10.62,10.62,0,0,0,3.26-7.81C271.42,338.54,262.58,329.89,258.81,326.2Z"/><path class="cls-5" d="M198.73,360.06a10.48,10.48,0,0,0-2.64.39,16.08,16.08,0,0,0,1.77-6.82,10.65,10.65,0,0,0-3.24-7.76,8.79,8.79,0,0,0-6.33-2.68,12.05,12.05,0,0,0-4.62,1,10.06,10.06,0,0,0-3.44-7.11c-4.61-4.26-9.95-2.87-14.55,0,0-.25,0-.51,0-.76a8.2,8.2,0,0,0-2.55-6,7.46,7.46,0,0,0-5.19-2.13c-4.89,0-9.45,4.59-13.12,8.28l-.72.74a56.58,56.58,0,0,0-8.23,10.18c-4.38,7.37-2.64,11.57-.42,13.8a7.91,7.91,0,0,0,5.65,2.42,9.22,9.22,0,0,0,2.88-.53c-1,3.73-.71,7.28,2.1,10.09a10.32,10.32,0,0,0,7.45,3.18,12.08,12.08,0,0,0,3.26-.48,9.42,9.42,0,0,0,2.61,8.37,9.25,9.25,0,0,0,6.73,2.9h0c2.93,0,5.81-1.34,8.47-3.2a9,9,0,0,0,1.83,8.14,7.06,7.06,0,0,0,5.5,2.44h0c8.5,0,20.1-13,23.48-21.4,2.38-5.92.85-9.1-.84-10.72A8.36,8.36,0,0,0,198.73,360.06Zm-59.14-2.94c-1.48-1.47.18-4.86,1.3-6.74a51.2,51.2,0,0,1,7.34-9.05l.74-.74c2.45-2.46,6.53-6.58,9-6.58a1.61,1.61,0,0,1,1.2.54,2.37,2.37,0,0,1,.75,1.84c0,3.57-4.28,9.51-8.59,13.81l-1,1.06c-2.25,2.3-6.43,6.59-9.17,6.59A2,2,0,0,1,139.59,357.12Zm10.63,12c-3.37-3.37,2.93-12.71,10.67-20.46s12.5-10,15.41-7.29c1.1,1,3.35,3.11-.93,8.51-1.59,1.41-3.16,2.93-4.7,4.47A70.06,70.06,0,0,0,160,367.66C157.53,369.71,153.36,372.25,150.22,369.11Zm13.32,11.07c-3.63-3.63,3-13.53,11.22-21.74,1.23-1.23,2.86-2.86,4.62-4.41a2.23,2.23,0,0,0,.24-.19l0,0c2.91-2.53,6.16-4.81,8.64-4.81a3,3,0,0,1,2.22,1,4.89,4.89,0,0,1,1.56,3.65c0,5.67-7.87,13.46-11.23,16.78l-.81.8-1.33,1.36c-3.22,3.3-8.6,8.83-12.53,8.83A3.57,3.57,0,0,1,163.54,380.18ZM200.07,371c-3.13,7.81-13.28,17.77-18.1,17.77a1.32,1.32,0,0,1-1.13-.45c-2.22-2.55,1.49-9.57,9-17.08,3.37-3.36,6.7-5.38,8.89-5.38a2.53,2.53,0,0,1,1.87.76C201,367,201.05,368.57,200.07,371Z"/><path class="cls-5" d="M182.22,304.42c0-12.63,19.84-27,29.38-33.94,2.06-1.5,3.7-2.68,4.79-3.59,6.55-5.42,20.31-8.65,36.81-8.65,12.74,0,23.27,5.87,29.85,10.8,8.26,6.19,34.34,6.29,37.21,6.3a2.9,2.9,0,0,0,0-5.8H320c-10.4,0-28.45-1.38-33.46-5.14-7.29-5.45-19-11.95-33.32-11.95-18.07,0-32.84,3.63-40.5,10-.95.79-2.6,2-4.5,3.36-11.08,8-31.66,23-31.77,38.5-.13,1.64-1.08,15.8,5.32,22.8a12,12,0,0,0,9.24,4,10.34,10.34,0,0,0,7.84-3.07c4.17-4.37,3.8-12.13,3.49-18.37-.11-2.43-.28-5.75,0-6.47,3.37-4.34,10.68-10.77,15.65-10.77a2.9,2.9,0,0,0,0-5.79c-8.3,0-17.41,9.38-20.22,13-1.65,2.11-1.48,5.55-1.25,10.31s.56,11.52-1.9,14.1A4.58,4.58,0,0,1,191,325.3a6.3,6.3,0,0,1-5-2.11c-4.09-4.47-4.15-14.88-3.82-18.51A2.17,2.17,0,0,0,182.22,304.42Z"/></g></g></svg>